<?xml version="1.0" standalone="no"?>
<!DOCTYPE svg PUBLIC "-//W3C//DTD SVG 20010904//EN"
 "http://www.w3.org/TR/2001/REC-SVG-20010904/DTD/svg10.dtd">
<svg version="1.0" xmlns="http://www.w3.org/2000/svg"
 width="1024.000000pt" height="1024.000000pt" viewBox="0 0 1024.000000 1024.000000"
 preserveAspectRatio="xMidYMid meet">

<g transform="translate(0.000000,1024.000000) scale(0.100000,-0.100000)"
fill="#000000" stroke="none">
<path d="M4815 9005 c-224 -30 -264 -36 -345 -51 -151 -28 -382 -84 -480 -115
-416 -136 -841 -359 -1016 -533 -71 -71 -134 -163 -134 -196 0 -5 -14 -32 -30
-59 -17 -27 -42 -78 -56 -112 -14 -35 -50 -104 -79 -154 -29 -49 -68 -121 -86
-158 -29 -58 -37 -67 -54 -62 -65 20 -93 23 -126 15 -79 -22 -117 -111 -90
-212 14 -54 14 -62 -1 -101 -9 -23 -33 -85 -53 -137 -25 -64 -52 -111 -83
-148 l-47 -55 -3 -172 c-4 -146 -2 -177 13 -204 19 -38 15 -67 -22 -148 -44
-96 -18 -169 66 -180 31 -4 41 -10 41 -24 0 -11 -7 -19 -15 -19 -8 0 -19 -9
-24 -19 -12 -22 -11 -360 1 -367 17 -11 7 -44 -19 -64 l-27 -21 17 -66 c20
-76 126 -350 168 -434 28 -57 69 -99 96 -99 7 0 42 -27 78 -60 35 -33 86 -73
114 -90 35 -22 53 -42 65 -70 11 -28 27 -45 55 -59 l38 -20 -9 -43 c-6 -24
-28 -92 -49 -153 -57 -162 -62 -192 -56 -318 12 -237 94 -395 261 -502 l57
-36 -17 -27 c-9 -15 -26 -40 -38 -57 -64 -88 -115 -220 -151 -390 -36 -170
-29 -427 16 -570 10 -33 19 -61 19 -62 0 -2 -7 -3 -15 -3 -29 0 -96 -40 -89
-53 5 -9 3 -9 -7 0 -7 7 -30 13 -51 13 -24 0 -45 7 -57 19 -10 10 -39 26 -64
36 -45 17 -46 17 -75 -3 -16 -12 -40 -41 -53 -66 -21 -40 -22 -49 -11 -67 11
-18 11 -23 1 -30 -19 -11 -26 -4 -33 34 -14 76 -54 94 -126 57 -21 -11 -41
-16 -44 -12 -3 5 -30 5 -62 2 -75 -8 -93 -30 -96 -114 -2 -82 -6 -125 -14
-164 -7 -35 -24 -44 -24 -12 0 13 -9 22 -27 26 -21 6 -30 2 -42 -17 -9 -13
-24 -32 -34 -41 -12 -13 -15 -26 -11 -43 9 -35 28 -31 43 10 14 40 21 43 46
15 23 -25 45 -26 52 -2 3 14 12 17 35 14 l30 -5 -17 27 c-37 56 18 111 81 79
46 -24 64 -44 64 -72 0 -32 -25 -71 -46 -71 -8 0 -31 -12 -50 -28 -32 -25 -34
-30 -28 -69 6 -42 6 -43 -24 -43 -24 0 -32 -6 -40 -30 -22 -60 -105 -51 -155
18 -29 39 -30 43 -13 55 12 9 17 23 14 42 -4 37 -29 44 -58 15 l-20 -20 20
-38 c11 -20 26 -54 34 -75 9 -20 22 -37 30 -37 9 0 16 -5 16 -11 0 -5 15 -16
34 -24 47 -20 102 -3 141 42 l31 36 27 -41 c15 -23 40 -48 56 -56 26 -14 30
-14 35 0 9 23 8 24 -18 24 -15 0 -34 12 -50 31 -43 51 -48 101 -11 125 17 11
28 9 74 -14 77 -39 94 -64 82 -127 -6 -33 -6 -54 1 -62 17 -21 88 -36 112 -24
l21 10 -21 0 c-12 1 -35 6 -53 12 -23 8 -31 17 -31 36 0 44 17 63 50 56 18 -3
30 -1 30 5 0 6 9 14 20 17 23 7 27 52 9 87 -27 51 29 24 71 -34 50 -69 39
-124 -35 -167 -17 -10 -16 -10 10 -5 17 4 36 11 43 17 6 5 12 6 12 1 1 -5 14
6 30 25 26 31 28 37 15 51 -8 9 -21 33 -30 54 -13 29 -13 41 -4 52 6 8 10 16
8 17 -2 2 -17 11 -32 21 -26 16 -28 21 -22 57 8 47 -4 51 -25 6 -13 -28 -20
-32 -52 -32 -27 0 -42 -6 -53 -22 -14 -20 -14 -23 5 -33 41 -22 34 -90 -10
-90 -25 0 -62 35 -58 56 2 13 -11 23 -51 38 -75 29 -84 47 -43 87 35 34 40 60
17 79 -8 7 -15 19 -15 27 0 8 -12 25 -26 38 -29 27 -91 34 -112 13 -9 -9 -12
-9 -12 0 0 7 5 12 12 12 9 0 9 3 0 12 -16 16 -16 120 0 136 18 18 49 15 86 -8
41 -25 42 -25 42 5 0 29 52 67 79 58 32 -12 51 -42 51 -81 0 -41 -11 -57 -43
-63 -21 -5 -55 -55 -44 -65 4 -4 22 0 41 8 30 15 37 15 62 2 16 -9 39 -27 51
-42 l22 -27 1 28 c0 15 4 27 10 27 5 0 16 13 25 30 18 35 45 39 102 15 44 -19
45 -19 41 2 -2 14 -20 20 -77 28 -62 8 -77 14 -94 36 -14 20 -17 35 -12 57 17
78 101 109 150 56 13 -14 32 -25 42 -24 60 7 86 -13 99 -76 5 -26 0 -37 -35
-73 -23 -23 -41 -52 -41 -64 0 -12 -16 -48 -35 -81 -20 -32 -35 -59 -33 -60 2
-1 25 -9 53 -17 54 -16 66 -35 45 -75 -7 -12 -26 -28 -41 -35 -32 -13 -34 -20
-18 -50 10 -20 14 -197 4 -207 -9 -9 -54 20 -61 40 -7 22 -24 24 -24 2 0 -9
20 -35 43 -58 29 -26 48 -56 56 -84 14 -48 42 -71 99 -79 46 -6 86 23 128 94
15 27 29 42 32 34 5 -14 -27 -92 -42 -102 -5 -4 -6 -14 -3 -23 5 -13 2 -15
-18 -10 -15 4 -25 2 -25 -4 0 -21 67 -97 83 -94 8 1 18 -6 22 -17 3 -11 15
-31 26 -45 27 -34 92 -36 126 -4 20 19 26 20 47 8 19 -10 40 -10 93 -2 l68 10
31 -35 c28 -32 39 -37 84 -40 47 -2 54 0 80 28 17 19 33 28 40 24 12 -7 10
-44 -4 -76 -8 -20 52 -89 78 -89 25 0 19 24 -14 53 -38 34 -38 51 1 86 19 18
27 31 20 35 -17 11 -13 52 6 71 21 22 71 13 97 -18 10 -12 26 -22 35 -22 11 0
17 -10 19 -32 2 -20 11 -37 23 -43 27 -15 24 -53 -7 -89 -34 -41 -16 -40 24 2
36 37 39 53 15 79 -9 10 -14 20 -12 21 2 2 33 -1 68 -7 61 -11 63 -12 76 -50
18 -51 80 -114 127 -128 51 -15 84 1 142 67 38 44 45 59 40 80 -6 25 -6 25 60
25 l67 0 -2 -55 c-2 -44 2 -58 17 -70 27 -20 58 -18 85 5 26 21 24 22 -36 24
l-40 1 -2 50 c-1 28 -2 55 -3 60 -2 6 -2 13 -1 18 0 4 -3 7 -9 7 -16 0 -11 17
14 46 22 26 25 27 55 15 17 -8 31 -18 31 -24 0 -5 9 -2 20 8 42 38 103 14 98
-38 -3 -28 0 -31 52 -49 66 -22 82 -35 57 -49 -19 -11 -14 -29 9 -29 8 0 14 7
14 15 0 9 11 20 24 25 32 12 37 29 18 62 -19 33 -7 51 44 68 49 16 82 5 106
-35 18 -32 24 -35 68 -35 42 0 48 2 43 19 -5 21 39 61 68 61 19 0 59 -44 59
-66 0 -7 -12 -21 -26 -31 -25 -19 -25 -19 -7 -51 23 -41 13 -58 -51 -82 -49
-19 -69 -18 -99 8 -13 11 -20 13 -29 4 -17 -17 -1 -45 23 -39 45 12 62 -12 32
-45 -30 -33 19 -22 52 12 36 38 45 38 45 0 0 -37 23 -50 86 -50 40 0 51 5 80
35 33 36 34 36 65 20 29 -16 35 -16 76 0 25 10 60 31 79 47 22 20 34 25 34 16
0 -19 42 -58 62 -58 20 0 48 32 48 54 0 16 -1 16 -16 2 -8 -9 -21 -16 -28 -16
-18 0 -46 33 -46 54 0 9 -5 27 -12 39 -11 21 -12 20 -22 -18 -8 -27 -18 -41
-31 -44 -11 -2 -38 -16 -59 -32 -22 -16 -45 -29 -52 -29 -7 0 -30 15 -53 34
-34 29 -38 36 -26 46 20 17 19 81 -2 125 -19 40 -12 62 27 82 18 9 33 8 68 -2
39 -12 48 -12 68 2 20 12 27 13 39 3 14 -12 13 -15 -5 -35 -21 -22 -28 -65
-10 -65 6 0 10 4 10 10 0 14 77 51 94 44 8 -3 20 -19 26 -35 14 -33 14 -33 41
-19 14 8 26 6 46 -7 36 -23 41 -30 36 -56 -7 -42 33 -86 111 -123 69 -33 77
-34 115 -24 47 12 119 69 88 70 -10 0 -22 12 -27 26 -13 34 -13 34 11 34 12 0
23 -8 26 -20 8 -32 23 -12 23 30 0 39 -1 39 -31 33 l-31 -6 17 27 c25 38 14
40 -24 5 -28 -25 -32 -35 -27 -62 15 -79 13 -88 -15 -103 -42 -21 -68 -17 -99
16 -17 18 -38 30 -54 30 -34 0 -46 27 -42 90 3 36 10 58 27 76 27 28 50 30 90
7 28 -17 29 -16 49 5 30 32 80 29 113 -5 14 -16 33 -34 42 -41 13 -11 14 -16
3 -30 -11 -13 -10 -14 16 -8 27 7 28 6 22 -20 -9 -34 10 -81 35 -89 11 -4 33
-4 49 0 26 6 30 11 30 38 0 18 3 43 7 57 8 35 -9 16 -23 -23 -8 -24 -17 -32
-35 -32 -32 0 -38 42 -10 76 17 21 27 24 86 23 42 -1 70 -7 75 -14 4 -7 15
-10 23 -7 21 8 57 -34 60 -69 2 -25 -3 -30 -30 -39 -25 -7 -33 -15 -33 -32 0
-18 -6 -23 -25 -23 -15 0 -39 7 -55 15 -17 9 -30 11 -30 6 0 -15 60 -44 79
-38 9 3 25 8 35 13 16 6 18 4 14 -14 -4 -16 0 -27 15 -37 29 -20 50 -19 71 4
12 14 35 20 90 23 86 6 146 35 146 72 0 13 9 31 20 41 31 28 36 78 11 118 -28
46 -26 53 7 27 23 -19 27 -20 30 -6 2 10 14 16 32 16 33 0 49 -18 29 -32 -9
-6 -1 -7 26 -2 22 4 55 7 73 6 41 -2 97 21 110 45 8 14 6 30 -9 62 -21 49 -23
54 -10 47 5 -3 22 1 37 9 16 8 34 15 41 15 7 0 16 8 22 17 8 15 3 20 -32 33
-49 18 -72 54 -81 126 -6 48 -5 52 16 57 13 4 29 0 40 -10 16 -15 20 -13 57
20 46 42 73 52 101 37 34 -18 26 -63 -17 -98 -37 -30 -37 -31 -20 -49 17 -17
19 -17 28 0 7 11 22 17 46 17 29 0 34 3 25 12 -16 16 -15 58 1 58 6 0 19 -5
27 -10 13 -8 13 -13 2 -31 -22 -35 2 -47 30 -14 45 51 138 27 138 -37 0 -29
-27 -76 -49 -83 -16 -5 -36 -53 -26 -63 2 -2 21 6 43 17 l40 20 27 -20 c14
-12 29 -19 32 -15 3 3 -8 13 -26 23 -28 17 -31 22 -31 70 0 42 4 55 22 67 37
26 71 20 105 -19 37 -42 62 -47 32 -6 -33 45 -23 80 31 107 31 16 39 24 25 24
-63 4 -75 13 -82 68 -5 34 -1 46 21 72 31 37 35 61 6 35 -11 -10 -30 -23 -42
-29 -32 -16 -33 -39 -7 -93 l22 -46 -24 -18 c-13 -10 -41 -26 -63 -36 -38 -17
-39 -17 -56 4 -18 23 -35 113 -23 124 5 3 25 12 46 19 45 14 47 25 7 39 -27 9
-30 14 -30 54 0 49 29 97 60 97 45 0 109 -42 123 -80 4 -12 6 -12 12 3 4 10 1
27 -9 42 -22 34 -20 47 7 43 17 -2 23 -10 25 -38 3 -34 20 -90 28 -90 2 0 14
10 25 21 17 17 29 20 62 16 23 -3 43 -9 44 -14 10 -29 47 -75 66 -83 20 -8 20
-9 2 -9 -11 0 -27 4 -35 9 -24 15 -50 -17 -50 -61 0 -48 -35 -78 -70 -59 -12
6 -26 10 -31 8 -12 -4 77 -68 95 -68 7 0 18 -11 24 -24 12 -27 86 -66 123 -66
38 1 102 51 113 89 6 21 22 41 46 56 52 33 80 72 80 112 0 19 11 50 24 71 30
44 43 129 24 153 -7 9 -27 23 -45 32 -50 26 -63 45 -63 89 0 35 -6 46 -47 85
-46 45 -47 45 -97 38 -28 -4 -67 -7 -87 -7 -32 0 -39 -5 -56 -37 -10 -20 -26
-36 -33 -36 -8 0 -25 -22 -37 -48 l-22 -48 -31 22 c-51 38 -37 67 43 83 35 8
34 15 -5 67 -45 58 -60 61 -56 13 3 -37 2 -38 -63 -73 -78 -41 -114 -38 -131
10 l-11 31 -22 -28 -23 -29 -37 18 c-34 16 -40 16 -68 2 -27 -14 -33 -14 -54
1 -29 18 -29 70 0 88 15 9 22 6 42 -18 l24 -30 7 30 c10 43 33 64 70 64 32 0
32 0 27 40 -10 69 21 84 110 54 41 -14 47 -19 47 -44 0 -16 5 -32 10 -35 6 -3
10 -15 10 -26 0 -10 6 -19 13 -19 15 0 46 20 32 20 -5 0 -11 14 -12 31 -3 37
-28 79 -47 79 -8 0 -27 7 -42 15 -16 8 -50 15 -75 15 -54 0 -77 -20 -86 -74
-4 -29 -10 -36 -28 -36 -12 0 -35 -10 -50 -21 -41 -33 -50 -8 -19 53 57 113
68 400 24 619 -51 251 -124 408 -231 502 -58 50 -58 57 -6 147 29 49 41 59
108 92 91 43 131 89 165 188 33 95 39 148 23 212 l-14 53 -6 -102 c-6 -88 -11
-112 -41 -175 -33 -68 -80 -127 -120 -149 -23 -12 -24 4 -1 22 85 70 137 292
113 480 -7 52 -25 130 -40 174 -46 131 -46 126 8 157 57 32 81 56 135 139 40
60 45 64 87 69 43 5 46 7 60 48 l15 43 41 -7 c37 -5 43 -3 61 23 20 28 75 146
131 278 36 87 93 303 93 353 0 20 -2 48 -5 62 -2 14 -5 32 -6 40 -1 8 -6 4
-10 -10 -6 -17 -7 -10 -3 23 3 26 5 67 5 90 -1 170 -1 167 -21 167 -17 0 -31
18 -31 40 0 5 15 11 33 15 59 12 67 16 82 45 19 37 19 146 0 180 -12 22 -11
27 1 41 19 21 31 127 33 289 2 143 -12 206 -59 265 -16 21 -30 47 -30 57 0 14
-5 18 -16 14 -11 -4 -18 1 -21 14 -3 11 -10 20 -16 20 -6 0 -2 7 9 15 18 13
17 14 -18 15 -36 0 -38 2 -64 63 -45 102 -218 435 -282 542 -39 65 -57 105
-52 115 4 8 10 37 14 64 5 40 3 47 -9 42 -10 -3 -25 16 -52 66 -64 122 -166
217 -419 391 -128 88 -467 266 -649 340 -245 100 -484 165 -760 208 -179 27
-622 36 -780 14z m805 -53 c362 -55 657 -155 1039 -354 286 -148 629 -394 595
-428 -6 -6 -37 14 -84 51 -162 131 -415 290 -603 379 -657 312 -1326 403
-2037 279 -375 -65 -836 -220 -1112 -374 -184 -103 -452 -287 -465 -321 -6
-15 -33 -20 -33 -5 0 13 149 157 205 197 128 92 500 287 654 344 320 117 553
178 864 225 224 33 217 33 547 30 235 -2 323 -7 430 -23z m-840 -367 c-14 -7
-64 -26 -110 -41 -73 -25 -81 -29 -56 -34 31 -5 49 -30 22 -30 -9 0 -16 -5
-16 -11 0 -7 12 -10 30 -7 20 3 27 1 21 -6 -4 -6 -22 -29 -39 -51 -33 -42 -77
-133 -69 -142 3 -2 10 5 16 16 31 56 228 151 316 151 46 0 65 9 58 27 -10 24
387 13 572 -16 327 -52 408 -99 807 -462 338 -307 413 -390 484 -531 39 -77
39 -78 19 -78 -8 0 -15 -4 -15 -10 0 -5 7 -7 15 -4 8 4 15 1 15 -6 0 -6 5 -8
13 -4 8 5 8 2 -2 -9 -12 -15 -11 -17 8 -17 20 0 21 -1 7 -16 -20 -20 -21 -38
-1 -30 8 3 15 1 15 -4 0 -6 -4 -10 -10 -10 -5 0 -7 -7 -3 -16 6 -15 7 -15 20
1 19 27 25 13 7 -20 -17 -33 -13 -49 14 -64 14 -8 19 -7 19 5 0 9 -6 13 -15 9
-7 -3 -12 0 -10 6 2 6 7 10 11 10 4 -1 13 -1 21 -1 13 0 71 -78 63 -86 -2 -2
-10 7 -17 21 -17 31 -24 31 -38 0 -6 -14 -17 -25 -24 -25 -9 0 -9 3 2 10 8 5
11 12 7 16 -10 11 -47 12 -47 2 0 -4 6 -8 13 -9 9 0 9 -2 -1 -6 -6 -2 -10 -9
-6 -14 3 -5 -2 -9 -11 -9 -9 0 -13 4 -10 10 3 6 -1 7 -9 4 -18 -7 -22 -35 -5
-32 6 2 14 -3 16 -10 6 -14 -18 -12 -29 3 -5 6 -12 4 -18 -5 -9 -13 -10 -13
-10 0 0 13 -1 13 -10 0 -13 -20 -12 -33 2 -24 7 4 8 3 4 -5 -11 -18 -26 -3
-22 22 2 13 10 21 20 21 18 -2 22 11 5 21 -13 9 -69 18 -69 11 0 -2 3 -12 6
-21 6 -13 9 -14 15 -3 6 9 8 6 6 -9 -5 -35 -14 -37 -25 -3 -12 33 -7 60 11 60
6 0 7 3 4 6 -4 4 -13 2 -21 -5 -11 -9 -15 -8 -20 5 -4 9 -4 19 -1 22 3 3 5 0
5 -6 0 -25 18 -11 24 18 3 18 12 30 21 30 10 0 13 -5 9 -12 -5 -10 -4 -10 6
-1 26 24 -16 39 -50 18 -6 -3 -10 4 -11 17 l0 23 -11 -23 c-10 -21 -16 -13
-70 90 -106 201 -232 380 -358 506 -70 71 -107 92 -59 33 190 -230 206 -254
355 -536 133 -253 217 -587 212 -840 0 -44 -3 -64 -5 -45 -4 33 -13 45 -56 79
-16 12 -17 11 -13 -10 2 -13 9 -23 15 -21 9 2 9 -3 1 -17 -5 -11 -11 -44 -12
-73 -1 -52 -2 -53 -5 -8 -7 89 -45 348 -70 470 -22 113 -36 152 -47 139 -2 -2
10 -110 26 -239 49 -396 49 -923 0 -855 -4 6 -11 11 -17 12 -5 1 -28 9 -50 17
-22 8 -56 15 -75 16 l-35 0 -2 78 c-4 124 -30 283 -83 499 -115 470 -246 777
-462 1079 -53 75 -107 147 -119 160 -40 43 -32 17 13 -43 84 -111 204 -317
271 -468 24 -55 44 -107 44 -115 1 -8 21 -96 47 -194 25 -99 46 -187 45 -195
-1 -9 -5 -5 -9 9 -8 24 -8 24 -9 3 -1 -27 -16 -30 -30 -5 -9 15 -10 14 -11 -6
0 -13 4 -20 10 -17 6 3 10 -1 10 -9 0 -9 5 -16 10 -16 6 0 10 -8 10 -17 -1
-17 -1 -17 -14 0 -14 19 -36 23 -36 7 0 -5 5 -10 11 -10 5 0 7 -5 3 -12 -4 -6
-3 -8 3 -5 6 4 18 -1 26 -11 15 -17 14 -20 -11 -47 -15 -16 -25 -38 -24 -49 3
-13 -1 -17 -11 -13 -8 3 -18 2 -23 -3 -5 -5 -18 -2 -29 7 -16 13 -17 15 -2 10
27 -10 21 22 -8 45 -22 17 -24 23 -13 36 10 12 10 14 1 8 -8 -4 -13 -1 -13 8
0 9 -7 16 -15 16 -19 0 -19 -5 1 -35 9 -14 12 -25 8 -25 -5 0 0 -7 10 -15 18
-14 19 -15 2 -15 -11 0 -16 -5 -13 -13 3 -8 -3 -14 -16 -14 -15 -2 -17 1 -8
10 19 19 13 29 -16 25 -20 -2 -38 6 -60 26 -37 33 -43 57 -13 49 31 -8 24 4
-9 15 -26 9 -29 8 -25 -6 8 -23 -90 80 -172 181 -131 161 -181 331 -191 655
-3 94 -9 172 -14 172 -14 0 -24 -93 -23 -220 1 -91 10 -175 33 -308 27 -157
31 -205 30 -342 0 -95 -4 -158 -10 -155 -5 4 -9 1 -9 -4 0 -6 -4 -11 -10 -11
-14 0 -12 27 3 33 6 2 0 4 -15 3 -14 0 -24 -4 -21 -8 2 -5 -2 -8 -10 -8 -11 0
-13 -7 -10 -22 5 -23 5 -23 -10 -3 -8 11 -13 23 -11 27 3 5 -2 8 -10 8 -9 0
-16 -4 -16 -10 0 -5 -7 -7 -15 -4 -8 4 -13 10 -10 14 12 19 -14 18 -30 0 -10
-11 -14 -20 -9 -20 5 0 0 -7 -10 -15 -14 -11 -23 -12 -33 -4 -9 8 -13 8 -13 1
0 -6 -7 -9 -15 -6 -8 4 -15 14 -15 23 0 14 2 14 10 1 8 -13 11 -13 25 1 15 14
14 17 -1 30 -12 9 -15 10 -10 2 4 -9 1 -13 -9 -13 -11 0 -15 5 -11 15 7 19 -3
19 -42 -1 -36 -17 -42 -29 -12 -21 28 7 36 -11 14 -31 -17 -16 -17 -16 -5 1
12 15 12 17 -3 11 -19 -7 -22 -34 -3 -34 7 -1 4 -7 -7 -15 -12 -9 -17 -22 -13
-35 3 -11 1 -17 -4 -14 -10 6 -29 -36 -22 -48 2 -5 -1 -8 -6 -8 -12 0 -10 27
2 47 4 6 3 14 -3 18 -5 3 -10 2 -10 -4 0 -5 -9 -13 -20 -16 -11 -4 -18 -11
-14 -16 3 -5 10 -7 15 -4 5 3 6 0 3 -8 -3 -9 4 -22 18 -31 12 -9 17 -16 11
-16 -16 0 -64 60 -57 71 3 5 1 9 -5 9 -15 0 -72 83 -66 98 2 7 0 10 -5 7 -5
-3 -21 13 -35 36 -29 45 -140 268 -170 339 -34 83 -27 15 8 -76 24 -62 31 -91
23 -96 -7 -5 -4 -8 7 -8 9 0 17 -5 17 -11 0 -5 -5 -7 -12 -3 -7 4 -8 3 -4 -5
4 -6 3 -18 -3 -25 -7 -8 -10 -18 -9 -24 2 -5 -1 -9 -7 -8 -5 0 -9 7 -8 15 1
10 -2 10 -10 2 -8 -8 -9 -16 -1 -29 8 -13 8 -20 -2 -30 -11 -10 -15 -6 -23 21
-5 17 -17 52 -26 77 -25 67 -94 338 -110 432 -19 107 -19 210 1 304 18 89 12
110 -10 33 -50 -177 -44 -374 20 -623 5 -21 4 -27 -5 -22 -6 4 -11 3 -11 -3 0
-5 4 -12 9 -15 5 -4 12 -25 16 -49 4 -23 12 -47 17 -54 5 -7 6 -18 1 -25 -13
-21 -10 -118 5 -118 6 0 12 4 12 10 0 5 7 7 15 4 10 -4 15 0 15 12 1 11 20
-30 44 -91 60 -154 61 -155 32 -110 -14 22 -26 46 -26 54 0 8 -3 12 -6 8 -3
-3 1 -25 9 -49 8 -24 25 -74 38 -113 23 -71 47 -115 107 -200 19 -25 32 -48
29 -51 -11 -11 -106 90 -136 143 -17 32 -59 103 -91 158 -138 230 -189 353
-249 595 -49 201 -66 345 -58 505 9 176 50 373 97 466 27 51 25 57 -6 28 -41
-37 -90 -153 -115 -270 -18 -84 -23 -137 -23 -278 l-1 -174 -280 -286 c-155
-158 -291 -304 -304 -324 -13 -22 -27 -34 -34 -30 -7 3 -9 3 -5 -2 10 -10 -11
-47 -22 -40 -5 3 -14 -5 -21 -17 -12 -22 -11 -22 6 -8 17 14 17 14 7 -7 -8
-14 -19 -20 -32 -18 -14 3 -27 -6 -43 -31 -22 -32 -42 -38 -31 -9 3 7 1 16 -5
20 -7 4 -11 -5 -11 -25 0 -36 -22 -63 -44 -54 -9 3 -14 10 -11 15 3 4 12 6 19
3 17 -7 30 12 22 33 -5 12 -9 13 -20 4 -10 -9 -15 -8 -19 3 -3 8 -2 16 2 18 5
2 5 13 0 26 -5 13 -14 20 -20 16 -6 -3 -7 -9 -3 -13 5 -3 9 -20 9 -38 0 -27
-2 -30 -17 -22 -10 5 -18 14 -18 20 0 6 5 7 10 4 6 -3 10 -2 10 3 0 5 -9 12
-20 15 -11 3 -18 2 -15 -3 3 -4 -2 -11 -11 -14 -23 -9 -34 -7 -34 4 0 6 8 10
18 10 16 1 16 1 -1 11 -9 5 -22 7 -29 3 -7 -4 -8 -3 -4 4 5 8 -3 10 -26 5 -31
-6 -32 -5 -18 12 14 17 14 18 -5 8 -24 -14 -55 0 -55 25 0 15 -2 15 -10 2 -33
-52 41 200 101 344 131 310 267 525 463 730 47 49 84 91 82 93 -7 8 -144 -116
-217 -197 -41 -44 -109 -133 -151 -197 -43 -63 -78 -110 -78 -105 0 20 72 162
97 192 14 17 18 28 11 25 -34 -13 -158 -213 -158 -253 0 -13 2 -14 9 -3 5 8
11 9 15 3 3 -5 -25 -75 -64 -153 -38 -79 -87 -189 -109 -244 -25 -63 -46 -100
-55 -100 -23 0 -31 -14 -12 -21 9 -3 16 -13 16 -21 0 -8 -4 -12 -9 -9 -5 4 -7
-4 -4 -16 4 -21 3 -22 -10 -6 -8 10 -17 15 -20 11 -10 -10 -8 -25 2 -18 11 6
26 -33 17 -42 -3 -4 -6 2 -7 13 0 16 -2 15 -10 -5 -6 -15 -15 -21 -24 -17 -8
3 -14 2 -14 -2 4 -22 -2 -53 -8 -49 -5 3 -8 -24 -7 -59 0 -36 -3 -67 -8 -70
-4 -3 -8 13 -8 35 0 25 -4 40 -11 39 -6 -2 -14 3 -16 10 -3 7 1 11 7 10 7 -2
15 3 17 10 3 8 -1 10 -14 6 -15 -6 -16 -4 -5 7 14 15 16 29 3 29 -5 0 -13 -9
-16 -20 -4 -11 -11 -18 -16 -14 -5 3 -7 10 -4 15 4 5 2 9 -4 9 -14 0 -23 -18
-11 -22 5 -1 11 -14 13 -27 2 -14 11 -27 20 -30 11 -4 13 -11 8 -20 -6 -9 -11
-10 -15 -2 -11 17 -26 13 -26 -6 0 -15 -2 -15 -9 -4 -7 10 -5 19 6 26 18 14 1
30 -19 20 -7 -4 -4 1 6 9 12 10 15 16 7 16 -9 0 -12 12 -8 40 3 28 1 40 -7 37
-6 -2 -13 -39 -17 -88 -5 -78 -5 -75 -7 47 -2 150 6 240 20 209 6 -15 7 -10 5
18 -2 20 0 37 4 37 4 0 11 15 14 33 4 17 20 56 36 85 15 29 26 59 23 66 -3 7
0 25 6 40 6 18 7 25 0 21 -33 -20 128 309 212 434 35 51 76 114 91 138 42 68
168 222 227 277 28 26 49 50 46 53 -6 7 -76 -49 -163 -130 -54 -51 -267 -319
-280 -354 -3 -7 -9 -11 -13 -8 -4 3 -7 -3 -6 -13 0 -10 -5 -16 -13 -14 -8 2
-11 -3 -8 -13 4 -9 1 -15 -9 -15 -11 0 -14 -5 -10 -17 5 -11 -1 -24 -16 -36
-13 -10 -17 -15 -9 -11 9 4 12 2 9 -7 -3 -8 -11 -13 -18 -11 -8 2 -10 -3 -7
-13 11 -27 -3 -46 -24 -34 -23 12 -24 6 -3 -15 9 -9 11 -16 4 -16 -6 0 -23
-11 -38 -25 -20 -19 -24 -27 -14 -37 6 -6 15 -8 19 -4 4 4 2 10 -4 14 -7 5 -2
13 14 25 l24 19 -16 -37 c-8 -21 -15 -39 -15 -41 0 -3 -11 -2 -25 0 -18 3 -26
-1 -30 -15 -4 -11 -18 -24 -31 -30 -14 -5 -30 -22 -36 -40 -7 -21 -13 -27 -18
-18 -5 7 -6 19 -2 27 4 11 2 13 -9 6 -8 -5 -17 -9 -21 -10 -5 -1 -11 -2 -15
-3 -5 -1 -2 -5 6 -10 11 -7 7 -13 -18 -25 -31 -16 -33 -15 -35 14 -1 8 -10 16
-21 17 -11 2 -14 0 -8 -3 9 -4 10 -11 2 -25 -5 -11 -7 -25 -3 -31 5 -7 2 -9
-9 -5 -11 4 -14 2 -11 -7 3 -8 14 -12 25 -9 10 3 16 9 13 14 -3 5 -3 9 0 9 3
0 8 -5 11 -10 10 -16 -37 -30 -54 -16 -12 9 -13 6 -9 -17 l5 -28 -26 17 c-22
15 -24 15 -13 2 11 -14 11 -18 -1 -25 -8 -4 -19 -35 -25 -68 l-11 -60 5 55 c8
87 32 199 61 280 41 116 177 378 231 446 27 33 76 101 109 150 94 140 385 406
522 478 77 40 267 115 446 174 172 57 521 139 600 140 39 1 40 1 15 -13z
m1135 -203 c-3 -3 -11 0 -18 7 -9 10 -8 11 6 5 10 -3 15 -9 12 -12z m92 -25
c37 -20 164 -42 318 -57 66 -7 131 -18 145 -25 54 -29 173 -126 299 -245 131
-124 180 -185 203 -251 6 -19 41 -88 78 -154 36 -66 74 -138 84 -160 10 -22
25 -53 33 -69 8 -15 10 -25 4 -22 -5 4 -14 -2 -20 -11 -10 -17 -10 -17 -11 2
-1 11 -4 15 -6 8 -7 -16 -34 -5 -34 13 0 11 -7 13 -27 8 -16 -4 -33 -11 -39
-15 -17 -13 -25 2 -12 20 7 9 8 13 4 9 -5 -5 -15 1 -23 12 -8 11 -18 20 -22
20 -12 0 -7 -46 8 -63 7 -9 10 -21 6 -27 -4 -6 1 -18 11 -26 11 -9 13 -13 7
-9 -9 4 -13 -3 -13 -25 0 -18 4 -29 10 -25 6 3 10 1 10 -4 0 -15 -23 -14 -38
1 -13 13 -15 8 -6 -16 3 -9 10 -13 15 -10 5 3 6 -2 3 -11 -7 -19 -12 -12 -88
129 -27 49 -63 105 -81 125 -17 20 -58 77 -90 126 -109 167 -486 530 -742 715
-34 25 -63 48 -63 53 0 11 42 2 77 -16z m1173 -616 c82 2 129 -6 145 -26 6 -7
19 -14 30 -16 11 -2 27 -19 36 -37 9 -18 44 -81 77 -140 70 -123 159 -324 198
-444 24 -74 28 -107 36 -303 12 -287 11 -340 -9 -379 l-17 -31 -7 46 c-9 60
-22 83 -80 145 -26 29 -50 62 -52 75 -3 13 -10 51 -16 84 -7 39 -44 129 -105
255 -52 107 -109 229 -126 270 -43 100 -162 337 -216 431 -24 42 -47 91 -51
110 l-6 33 44 -37 c43 -38 45 -38 119 -36z m-4287 31 c20 -2 37 -8 37 -13 0
-5 -18 -20 -40 -34 -22 -14 -46 -38 -55 -55 -14 -28 -14 -30 2 -30 10 0 30 19
46 44 37 59 51 70 69 54 59 -55 51 -55 123 -9 70 44 70 42 -16 -64 -131 -163
-235 -395 -283 -637 -27 -130 -36 -207 -46 -377 -7 -134 -12 -167 -27 -184
-26 -29 -104 -77 -125 -77 -27 0 -22 -17 10 -28 15 -6 20 -11 12 -11 -8 -1
-49 12 -90 28 l-75 30 0 283 0 283 38 95 c21 52 65 145 98 207 53 100 59 118
59 171 0 42 4 61 14 65 8 3 30 36 50 74 20 37 59 93 86 123 29 31 48 60 45 68
-4 10 0 12 12 6 10 -4 35 -9 56 -12z m4281 -427 c3 -8 1 -15 -4 -15 -6 0 -10
7 -10 15 0 8 2 15 4 15 2 0 6 -7 10 -15z m29 -15 c3 -11 1 -18 -4 -14 -5 3 -9
-1 -9 -9 0 -7 -7 -14 -15 -14 -13 0 -13 2 0 17 9 10 13 24 9 35 -5 12 -4 16 3
12 6 -4 13 -16 16 -27z m-58 0 c10 -11 13 -20 7 -20 -6 0 -16 9 -22 20 -6 11
-9 20 -7 20 2 0 12 -9 22 -20z m-25 -20 c6 -11 8 -20 6 -20 -3 0 -10 9 -16 20
-6 11 -8 20 -6 20 3 0 10 -9 16 -20z m-2671 -150 c53 -369 237 -784 450 -1012
109 -117 356 -278 425 -278 29 0 28 2 -31 37 -34 20 -61 39 -58 41 5 6 225
-68 225 -76 0 -3 -10 -16 -22 -29 -12 -13 -19 -25 -16 -28 2 -3 31 0 64 5 32
6 71 12 85 15 l27 4 -19 -60 c-38 -122 -19 -333 41 -454 43 -88 129 -179 187
-199 67 -23 180 -21 247 5 102 38 239 191 295 329 35 89 40 66 11 -63 -19 -87
-51 -158 -113 -253 l-32 -48 -105 -4 c-244 -10 -271 -8 -328 22 -58 29 -84 27
-55 -6 31 -35 98 -58 200 -68 117 -11 124 -11 98 1 -14 6 -1 7 40 4 43 -4 54
-2 40 5 -15 7 -6 9 35 7 48 -2 55 -5 58 -24 2 -15 -11 -37 -39 -68 -23 -25
-39 -48 -36 -51 3 -3 45 8 94 25 74 26 89 28 91 15 3 -14 -62 -201 -94 -270
-8 -17 -31 -40 -52 -51 -99 -55 -929 -316 -1056 -332 -79 -11 -81 -10 -446
106 -621 197 -642 205 -709 278 -24 26 -57 79 -76 118 -18 40 -49 107 -68 150
-20 42 -32 77 -26 77 5 0 29 -10 52 -21 46 -23 208 -71 216 -63 6 6 -22 27
-103 76 -152 92 -299 369 -330 623 -6 46 -5 48 10 30 14 -18 15 -18 10 -2 -5
15 -1 18 27 15 25 -2 33 -8 35 -26 3 -18 16 -29 53 -44 46 -19 49 -23 49 -57
0 -20 10 -52 21 -71 12 -19 35 -60 52 -90 35 -65 62 -101 70 -94 3 3 23 -18
45 -48 52 -70 123 -135 175 -159 80 -36 217 -15 317 49 95 60 186 240 197 388
10 127 -31 276 -96 347 -34 37 -34 39 -11 33 14 -4 65 -32 114 -61 80 -48 116
-59 116 -35 0 5 -30 34 -67 65 -154 128 -315 195 -493 203 -131 6 -198 -10
-335 -78 -130 -64 -211 -130 -160 -130 34 0 10 -22 -65 -60 l-80 -40 0 74 c0
76 23 276 38 331 7 25 15 31 48 37 68 12 261 27 494 38 256 12 380 4 437 -30
41 -24 43 -24 43 -6 0 7 14 19 30 26 32 13 50 37 50 64 0 10 -6 13 -15 10 -9
-4 -32 5 -53 19 -82 57 -291 86 -477 67 -146 -15 -172 -22 -367 -101 -197 -79
-191 -83 -124 80 52 126 127 256 198 343 88 109 522 539 529 525 3 -6 11 -50
18 -97z m2801 73 c0 -20 -16 -8 -23 17 -4 17 -3 19 9 9 8 -6 14 -18 14 -26z
m-30 7 c0 -5 -2 -10 -4 -10 -3 0 -8 5 -11 10 -3 6 -1 10 4 10 6 0 11 -4 11
-10z m-285 -9 c3 -5 2 -12 -3 -15 -5 -3 -9 1 -9 9 0 17 3 19 12 6z m265 -5 c0
-3 -4 -8 -10 -11 -5 -3 -10 -1 -10 4 0 6 5 11 10 11 6 0 10 -2 10 -4z m-463
-52 c-3 -3 -12 -4 -19 -1 -8 3 -5 6 6 6 11 1 17 -2 13 -5z m-3724 -99 c-3 -9
-8 -14 -10 -11 -3 3 -2 9 2 15 9 16 15 13 8 -4z m-172 -88 c-6 -8 -7 -18 -3
-22 4 -5 1 -5 -6 -1 -10 6 -10 11 -1 22 6 8 14 14 16 14 3 0 0 -6 -6 -13z
m206 -69 c-3 -8 -6 -5 -6 6 -1 11 2 17 5 13 3 -3 4 -12 1 -19z m-60 -10 c-3
-8 -6 -5 -6 6 -1 11 2 17 5 13 3 -3 4 -12 1 -19z m50 -30 c-3 -8 -6 -5 -6 6
-1 11 2 17 5 13 3 -3 4 -12 1 -19z m4337 -129 c4 -19 13 -70 21 -115 11 -65
20 -87 45 -114 17 -18 28 -35 25 -38 -10 -11 -71 65 -82 103 -12 41 -53 260
-53 279 1 16 36 -76 44 -115z m-4587 59 c-2 -13 -4 -5 -4 17 -1 22 1 32 4 23
2 -10 2 -28 0 -40z m3042 -199 l40 -45 -100 -13 c-55 -7 -102 -11 -104 -9 -5
5 -35 244 -35 281 0 26 8 19 80 -69 44 -55 97 -119 119 -145z m-924 161 c3
-11 3 -25 -1 -31 -4 -7 -1 -10 7 -7 8 3 13 14 11 24 -2 16 -1 16 7 4 6 -9 6
-19 1 -24 -10 -10 -2 -36 11 -36 4 0 6 8 2 18 -5 13 -3 14 7 5 7 -6 9 -16 6
-22 -9 -14 -36 -14 -36 0 0 18 -33 5 -36 -14 -6 -40 -15 -29 -12 13 2 25 10
50 18 57 10 9 11 12 3 13 -15 0 -18 20 -4 20 5 0 12 -9 16 -20z m1932 -12 c-3
-8 -6 -5 -6 6 -1 11 2 17 5 13 3 -3 4 -12 1 -19z m-2097 2 c0 -5 -5 -10 -11
-10 -5 0 -7 5 -4 10 3 6 8 10 11 10 2 0 4 -4 4 -10z m10 -30 c0 -5 -4 -10 -10
-10 -5 0 -10 5 -10 10 0 6 5 10 10 10 6 0 10 -4 10 -10z m-1973 -82 c-2 -18
-4 -6 -4 27 0 33 2 48 4 33 2 -15 2 -42 0 -60z m2132 21 c-16 -10 -23 -4 -14
10 3 6 11 8 17 5 6 -4 5 -9 -3 -15z m41 -3 c0 -3 -4 -8 -10 -11 -5 -3 -10 -1
-10 4 0 6 5 11 10 11 6 0 10 -2 10 -4z m-1683 -38 c-3 -8 -6 -5 -6 6 -1 11 2
17 5 13 3 -3 4 -12 1 -19z m2180 6 c-3 -3 -12 -4 -19 -1 -8 3 -5 6 6 6 11 1
17 -2 13 -5z m120 -46 c-2 -13 -4 -5 -4 17 -1 22 1 32 4 23 2 -10 2 -28 0 -40z
m-2311 -1 c-2 -7 -5 -3 -6 8 l-1 20 -9 -20 c-8 -20 -9 -20 -9 1 -1 11 2 24 6
28 9 9 26 -22 19 -37z m81 21 c-3 -8 -6 -5 -6 6 -1 11 2 17 5 13 3 -3 4 -12 1
-19z m2063 19 c0 -2 -9 -12 -21 -23 -15 -14 -20 -15 -17 -4 2 8 8 18 13 22 10
8 25 10 25 5z m-116 -14 c-5 -5 -12 -12 -16 -18 -4 -6 -8 -2 -8 8 0 9 7 17 17
17 9 0 12 -3 7 -7z m-1914 -13 c0 -5 -5 -10 -11 -10 -5 0 -7 5 -4 10 3 6 8 10
11 10 2 0 4 -4 4 -10z m1600 1 c0 -6 -5 -13 -12 -17 -6 -4 -8 -3 -4 4 3 5 0
13 -6 15 -8 3 -6 6 5 6 9 1 17 -3 17 -8z m375 -1 c-3 -5 -11 -10 -16 -10 -6 0
-7 5 -4 10 3 6 11 10 16 10 6 0 7 -4 4 -10z m-2578 -97 c-2 -21 -4 -6 -4 32 0
39 2 55 4 38 2 -18 2 -50 0 -70z m558 37 c-4 -23 -9 -39 -11 -37 -3 2 -2 23 2
46 4 23 9 40 11 37 3 -3 2 -23 -2 -46z m410 32 c-3 -3 -11 0 -18 7 -9 10 -8
11 6 5 10 -3 15 -9 12 -12z m1267 9 c8 11 9 11 5 -1 -2 -8 -10 -15 -17 -15 -7
0 -16 -9 -21 -20 -7 -17 -8 -18 -8 -2 -1 21 22 50 28 35 2 -6 7 -4 13 3z
m2175 -28 c13 -8 23 -18 23 -20 0 -3 -11 2 -25 11 -13 9 -40 16 -60 16 -80 0
-141 -51 -198 -166 -17 -35 -35 -64 -39 -64 -12 0 22 100 47 139 49 78 114
115 184 105 24 -3 55 -13 68 -21z m-3935 -25 c-6 -6 -7 0 -4 19 5 21 7 23 10
9 2 -10 0 -22 -6 -28z m480 28 c7 4 8 2 4 -5 -9 -13 -26 -5 -25 12 0 9 2 8 6
-1 2 -6 10 -9 15 -6z m2471 -1 c-3 -9 -8 -14 -10 -11 -3 3 -2 9 2 15 9 16 15
13 8 -4z m-2653 -20 c20 -24 6 -28 -15 -5 -10 11 -13 20 -8 20 6 0 16 -7 23
-15z m2604 -21 c5 -14 4 -15 -9 -4 -17 14 -19 20 -6 20 5 0 12 -7 15 -16z
m105 -78 l-3 -95 -29 17 c-15 9 -36 26 -45 37 -16 19 -16 19 1 6 9 -7 17 -10
17 -5 0 5 7 -2 16 -15 21 -29 35 -12 33 39 -2 63 1 110 7 110 3 0 4 -43 3 -94z
m-139 70 c0 -3 -4 -8 -10 -11 -5 -3 -10 -1 -10 4 0 6 5 11 10 11 6 0 10 -2 10
-4z m-2873 -38 c-3 -8 -6 -5 -6 6 -1 11 2 17 5 13 3 -3 4 -12 1 -19z m87 14
c-7 -4 -14 -18 -17 -32 -4 -21 -4 -20 -6 8 -1 24 3 32 17 32 11 0 13 -3 6 -8z
m-201 -32 c-3 -11 -10 -20 -15 -20 -6 0 -5 -7 2 -15 7 -8 18 -15 24 -15 8 0 8
2 0 8 -9 5 -8 11 2 20 11 10 14 10 15 0 0 -7 2 -21 4 -30 5 -29 -36 -16 -56
17 -11 16 -19 35 -18 40 0 6 3 4 6 -2 7 -18 23 -16 23 2 0 8 4 15 9 15 5 0 7
-9 4 -20z m73 -47 c0 -10 -5 -21 -10 -25 -6 -4 -5 -12 2 -20 6 -7 9 -26 8 -40
-2 -15 1 -25 5 -22 5 3 7 18 5 34 -2 15 1 34 5 42 11 17 11 -69 0 -97 -7 -18
-9 -17 -26 10 -10 17 -26 42 -36 57 -22 32 -25 45 -6 30 10 -9 17 -4 31 18 20
35 24 37 22 13z m31 -5 c-3 -8 -6 -5 -6 6 -1 11 2 17 5 13 3 -3 4 -12 1 -19z
m75 -35 c-5 -101 -9 -111 -11 -25 0 45 2 82 7 82 4 0 6 -26 4 -57z m2276 31
c4 3 8 -4 8 -14 0 -10 -3 -17 -7 -15 -3 2 -21 0 -40 -5 -70 -19 -90 -19 -96
-3 -7 19 31 55 51 47 7 -3 23 -1 37 4 18 7 26 6 32 -4 5 -8 11 -12 15 -10z
m515 -5 c40 -16 98 -50 129 -75 31 -24 76 -53 100 -64 42 -18 43 -20 59 -94 9
-41 13 -78 10 -83 -3 -5 -29 -13 -58 -19 -45 -9 -54 -8 -75 8 -78 63 -207 86
-382 67 -105 -11 -120 -11 -130 3 -17 23 -71 256 -62 265 6 7 90 13 294 21 29
1 67 -8 115 -29z m704 -21 c-3 -8 -6 -5 -6 6 -1 11 2 17 5 13 3 -3 4 -12 1
-19z m-1777 -29 c0 -6 -4 -7 -10 -4 -5 3 -10 11 -10 16 0 6 5 7 10 4 6 -3 10
-11 10 -16z m2529 -20 c17 -6 31 -14 31 -19 0 -4 -18 -24 -39 -43 -22 -19 -37
-38 -33 -41 13 -13 36 -4 63 25 33 36 44 32 59 -19 28 -104 -8 -281 -252
-1219 -20 -81 -91 -122 -120 -70 -16 30 -16 396 0 502 20 121 170 731 199 805
38 96 39 97 92 79z m-5219 -29 c0 -5 -7 -10 -15 -10 -8 0 -15 5 -15 10 0 6 7
10 15 10 8 0 15 -4 15 -10z m297 -5 c14 -10 24 -12 28 -5 11 18 31 11 43 -15
6 -13 29 -92 52 -174 22 -82 71 -246 110 -365 107 -332 160 -602 160 -813 l0
-62 -40 4 c-22 2 -59 14 -83 27 -38 21 -45 31 -70 103 -16 44 -48 148 -72 230
-24 83 -55 182 -69 220 -111 319 -139 406 -160 506 -30 142 -41 252 -27 276
27 47 26 46 78 9 28 -20 58 -36 67 -36 33 0 14 18 -49 49 -36 17 -65 35 -65
40 0 23 67 27 97 6z m973 -72 c-11 -17 -11 -17 -6 0 3 10 6 24 7 30 0 9 2 9 5
0 3 -7 0 -20 -6 -30z m-1 -30 c0 -5 -4 -17 -9 -28 -8 -17 -8 -16 -7 8 1 15 5
27 9 27 4 0 8 -3 7 -7z m-1129 -172 c11 -45 43 -148 71 -229 79 -226 119 -360
119 -395 l0 -32 -22 34 c-20 32 -105 230 -149 349 -49 133 -84 401 -47 364 5
-5 18 -46 28 -91z m1107 62 c-3 -10 -5 -4 -5 12 0 17 2 24 5 18 2 -7 2 -21 0
-30z m4112 -7 c6 -25 11 -64 11 -88 0 -24 4 -59 10 -78 7 -25 6 -39 -4 -54
-30 -48 -158 -411 -181 -514 -3 -18 -15 -37 -26 -42 -10 -6 -19 -8 -19 -5 0 6
65 273 119 495 16 63 35 163 42 223 14 117 29 137 48 63z m-4122 -58 c-3 -8
-6 -5 -6 6 -1 11 2 17 5 13 3 -3 4 -12 1 -19z m-230 -10 c-3 -8 -6 -5 -6 6 -1
11 2 17 5 13 3 -3 4 -12 1 -19z m2103 -13 c13 -14 19 -25 13 -25 -6 0 -18 11
-27 25 -9 14 -15 25 -13 25 2 0 14 -11 27 -25z m413 -85 c35 -39 37 -92 5
-114 -69 -48 -204 27 -168 94 35 65 113 75 163 20z m327 -64 c-19 -6 -41 -15
-47 -19 -9 -5 -13 -3 -13 7 0 8 12 16 28 19 52 8 67 5 32 -7z m-1670 -36 c43
-22 75 -56 89 -93 17 -45 13 -66 -18 -98 -59 -58 -138 -31 -185 63 -63 126 -7
188 114 128z m1765 -11 c30 -27 35 -37 35 -75 0 -51 -26 -85 -85 -110 -73 -30
-112 -7 -122 73 -11 98 18 143 92 143 35 0 51 -6 80 -31z m340 -44 c-9 -42
-13 -51 -14 -29 -1 16 -7 36 -13 43 -11 10 -8 16 12 31 14 10 26 18 26 17 1
-1 -4 -29 -11 -62z m62 -18 c-7 -54 -35 -145 -36 -117 -1 13 -3 13 -12 0 -9
-12 -9 -11 -4 5 10 27 44 148 45 158 0 4 3 7 6 7 4 0 4 -24 1 -53z m-2457 28
c35 -18 50 -43 50 -84 0 -51 -80 -93 -146 -77 -34 9 -74 53 -74 83 0 15 -4 22
-11 17 -7 -4 -10 -1 -7 7 3 8 10 14 16 14 6 0 17 7 24 16 32 40 97 51 148 24z
m255 -185 c3 -5 -1 -10 -9 -10 -8 0 -18 5 -21 10 -3 6 1 10 9 10 8 0 18 -4 21
-10z m1950 -122 c-4 -23 -14 -58 -21 -78 -15 -36 -14 -26 7 68 14 62 24 69 14
10z m-39 -154 c-4 -14 -9 -24 -12 -21 -3 2 -2 17 2 31 3 15 9 25 11 22 3 -3 2
-17 -1 -32z m-566 0 c42 -8 120 -15 180 -15 58 1 119 0 135 -2 17 -1 37 2 45
7 8 6 0 -6 -18 -26 -54 -58 -124 -91 -206 -96 -39 -2 -90 1 -114 7 -44 12
-109 61 -109 83 0 7 -3 23 -7 36 -9 27 -5 27 94 6z m-1336 -27 c-2 -13 1 -15
11 -7 10 8 15 8 20 0 9 -15 -39 -65 -95 -98 -39 -23 -56 -27 -128 -27 -72 0
-85 3 -97 20 -8 11 -18 25 -23 30 -35 42 -2 75 77 76 31 0 81 7 111 14 77 18
125 15 124 -8z m1919 -12 c-3 -9 -8 -14 -10 -11 -3 3 -2 9 2 15 9 16 15 13 8
-4z m-3619 -239 c36 -106 38 -118 24 -132 -15 -15 -17 -14 -32 8 -17 26 -40
124 -50 218 -9 80 10 49 58 -94z m465 -366 c0 -22 -1 -23 -12 -9 -7 10 -23 15
-40 13 -15 -1 -27 -1 -27 1 0 1 9 22 20 46 11 24 20 60 20 80 0 66 15 51 27
-28 6 -43 12 -89 12 -103z m-281 111 c3 -30 2 -32 -17 -21 -20 10 -28 40 -14
54 14 13 28 -1 31 -33z m4281 -56 c0 -5 -4 -3 -9 5 -5 8 -9 22 -9 30 0 16 17
-16 18 -35z m-123 -68 l1 -62 -9 47 c-9 41 -6 78 4 78 2 0 4 -28 4 -63z
m-4345 -85 c-41 -143 -61 -242 -62 -305 l-1 -52 -10 45 c-15 63 5 223 40 336
35 111 41 122 54 100 6 -11 -1 -50 -21 -124z m4476 116 c-3 -8 -6 -5 -6 6 -1
11 2 17 5 13 3 -3 4 -12 1 -19z m-4277 3 c0 -5 -7 -11 -15 -15 -15 -5 -20 5
-8 17 9 10 23 9 23 -2z m4089 -79 c6 -19 6 -32 0 -32 -5 0 -12 12 -15 28 -4
15 -18 43 -32 62 l-25 35 32 -30 c17 -17 35 -45 40 -63z m-122 56 c-3 -8 -6
-5 -6 6 -1 11 2 17 5 13 3 -3 4 -12 1 -19z m-3774 -19 c-11 -4 -23 -14 -26
-23 -4 -9 -11 -16 -17 -16 -6 0 -1 13 11 29 14 19 27 27 37 24 12 -5 11 -8 -5
-14z m-246 -41 c-3 -8 -6 -5 -6 6 -1 11 2 17 5 13 3 -3 4 -12 1 -19z m634 -38
c-6 -28 -12 -72 -13 -98 -1 -41 -2 -43 -6 -12 -4 36 16 175 25 166 3 -2 0 -28
-6 -56z m2777 -55 c30 -219 161 -429 342 -547 39 -26 41 -29 16 -23 -40 8
-188 146 -241 225 -63 91 -113 222 -130 338 -17 108 -18 138 -6 107 5 -11 13
-56 19 -100z m822 67 c0 -14 2 -15 9 -3 8 12 11 9 16 -12 4 -15 16 -32 26 -38
11 -5 19 -15 19 -22 0 -7 -4 -6 -10 3 -6 9 -10 10 -10 3 0 -6 5 -15 10 -18 6
-3 10 -11 10 -16 0 -6 -4 -7 -10 -4 -5 3 -10 0 -11 -7 -1 -23 -7 -50 -13 -55
-2 -3 -1 -16 4 -28 8 -20 6 -23 -10 -22 -19 1 -21 7 -24 49 -1 9 -5 20 -9 25
-5 4 -8 4 -7 -2 1 -5 1 -44 0 -85 -2 -60 -5 -46 -11 70 -5 80 -6 155 -4 168 6
25 25 21 25 -6z m-4267 -51 c-10 -28 -21 -51 -24 -51 -4 0 2 24 14 54 27 68
35 66 10 -3z m4404 -23 c-3 -10 -1 -21 4 -24 5 -3 8 -31 7 -62 -1 -44 -2 -48
-5 -17 -5 63 -12 85 -26 82 -6 -1 -15 -6 -19 -11 -3 -5 -5 2 -5 17 1 14 5 23
10 20 4 -2 7 2 7 11 0 8 -6 16 -12 19 -9 3 -7 10 7 24 20 20 20 20 28 -10 5
-17 6 -39 4 -49z m-3871 35 c-8 -15 -15 -25 -16 -21 0 12 23 58 27 54 3 -2 -2
-17 -11 -33z m3554 10 c0 -5 4 -15 10 -23 7 -12 12 -12 29 4 12 11 21 16 21
11 0 -4 7 -2 15 5 8 7 15 11 16 9 0 -2 4 -43 7 -91 7 -93 -3 -118 -30 -75 -37
59 -88 167 -79 167 6 0 11 -3 11 -7z m-83 -55 c-3 -7 -5 -2 -5 12 0 14 2 19 5
13 2 -7 2 -19 0 -25z m-2281 -139 c22 -10 65 -28 95 -39 73 -29 79 -36 79 -89
0 -133 -24 -154 -132 -119 -37 12 -68 28 -68 35 0 7 11 42 25 79 40 107 36
114 -65 114 -123 0 -633 -208 -750 -307 -40 -33 -105 -129 -136 -200 -34 -75
-41 -61 -10 19 25 69 64 137 100 177 70 78 273 180 591 297 55 20 116 43 135
50 39 15 75 11 136 -17z m1179 -10 c39 -16 102 -47 140 -70 39 -23 122 -67
186 -99 154 -78 262 -160 316 -242 50 -76 73 -147 113 -360 48 -254 56 -276
118 -316 43 -27 57 -30 162 -37 98 -6 119 -10 138 -29 60 -54 70 -146 31 -286
-22 -81 -30 -176 -19 -230 4 -19 1 -25 -12 -24 -22 2 -22 1 -3 -36 18 -35 26
-37 50 -10 22 25 86 27 109 4 10 -9 16 -33 16 -59 0 -34 -5 -48 -24 -62 -13
-10 -31 -34 -41 -53 l-18 -35 28 28 c30 29 67 35 110 15 28 -13 30 -20 13 -48
-11 -17 -10 -22 2 -30 37 -25 56 -22 92 14 43 43 80 54 113 32 13 -9 33 -16
43 -16 10 0 21 -3 25 -6 10 -10 -22 -66 -62 -107 -44 -47 -83 -68 -113 -63
-13 3 -27 5 -31 5 -10 1 2 44 15 52 5 3 4 17 -2 34 -14 37 -23 25 -26 -31 -1
-30 -8 -52 -23 -68 l-21 -22 23 -22 c32 -30 48 -27 72 11 17 28 27 32 67 35
56 4 71 -15 66 -81 -3 -37 -6 -42 -30 -45 -24 -3 -29 -9 -34 -40 -5 -30 -14
-42 -44 -60 -51 -29 -64 -28 -110 9 -34 27 -41 29 -62 18 -12 -7 -27 -18 -33
-24 -5 -7 -28 -15 -49 -18 -22 -4 -63 -18 -91 -32 -66 -32 -75 -31 -110 5 -16
17 -35 28 -43 25 -12 -4 -14 4 -10 45 6 63 29 90 76 90 22 0 45 9 64 25 16 14
40 25 52 25 27 0 51 -39 41 -69 -9 -29 9 -27 29 4 20 30 20 36 2 29 -11 -4
-16 4 -18 28 -2 25 -8 34 -25 36 -43 6 -41 81 3 101 14 6 36 11 49 11 39 0 32
33 -10 49 -24 8 -35 19 -35 32 0 16 -3 17 -18 8 -14 -9 -29 -7 -65 5 -26 9
-54 16 -62 16 -22 0 -20 26 26 331 22 151 43 291 46 312 5 31 1 43 -17 62
l-23 25 -1719 0 c-1144 0 -1717 3 -1713 10 4 7 583 10 1705 10 1169 0 1701 3
1705 10 4 6 1 18 -6 26 -11 14 -38 15 -211 9 l-198 -8 0 34 c-1 48 -32 111
-73 145 -20 17 -37 42 -42 62 -8 38 -13 39 -58 12 l-34 -20 -45 48 -44 49 11
84 c16 112 27 308 16 289 -5 -8 -19 -60 -31 -115 -12 -55 -33 -135 -47 -177
-25 -76 -26 -77 -64 -83 -29 -5 -47 -16 -67 -42 -41 -54 -61 -73 -75 -73 -21
0 -76 85 -66 101 14 23 10 93 -7 118 -22 30 -89 61 -137 61 -30 0 -44 -6 -64
-30 -13 -16 -28 -30 -32 -30 -5 0 -29 21 -54 47 -40 40 -52 46 -88 47 -25 1
-44 -4 -46 -11 -3 -9 5 -13 23 -13 15 0 38 -10 51 -22 13 -12 23 -16 23 -10 0
18 17 14 24 -5 3 -10 9 -23 12 -30 3 -7 -9 -18 -30 -27 -26 -11 -34 -19 -30
-31 4 -11 13 -13 27 -9 12 4 41 7 65 8 41 1 44 3 63 45 16 36 23 42 41 38 12
-4 28 -1 36 5 11 10 17 8 30 -9 10 -11 25 -23 34 -26 22 -8 32 -64 19 -101
-11 -27 -12 -28 -37 -12 -29 19 -66 12 -62 -11 2 -9 -2 -18 -9 -20 -11 -4 -24
7 -58 52 -13 17 -12 13 1 -34 15 -52 15 -56 -2 -68 -10 -7 -25 -13 -35 -13 -9
0 -28 -9 -42 -20 -29 -23 -45 -25 -84 -8 -38 17 -56 35 -43 43 5 3 10 16 10
29 0 13 9 31 20 41 25 23 26 38 1 30 -15 -4 -28 3 -48 26 -15 18 -36 41 -45
51 -23 23 -23 39 1 65 12 13 18 29 14 41 -3 12 13 76 36 144 67 204 72 231 51
329 -16 76 -16 85 -2 97 46 36 229 -4 377 -83 55 -29 136 -68 180 -85 98 -38
213 -109 253 -154 77 -88 122 -219 157 -455 16 -102 39 -163 84 -217 19 -23
80 -58 88 -51 2 3 -5 8 -17 12 -40 13 -86 132 -115 300 -29 170 -66 301 -99
354 -52 81 -137 145 -346 256 -291 155 -326 169 -430 170 -47 0 -102 -4 -122
-8 -31 -6 -38 -5 -38 8 0 29 112 57 190 48 25 -2 77 -18 115 -34z m-337 -92
c12 -40 22 -86 22 -103 0 -28 -3 -31 -52 -41 -29 -6 -55 -9 -58 -6 -7 6 -5 86
4 155 6 47 11 57 29 61 12 2 25 5 28 6 3 0 15 -32 27 -72z m1839 31 c-3 -7 -5
-2 -5 12 0 14 2 19 5 13 2 -7 2 -19 0 -25z m-2713 -15 c-13 -55 -45 -131 -59
-143 -33 -27 0 -300 50 -424 25 -61 21 -86 -11 -86 -8 0 -22 -9 -31 -20 -12
-13 -20 -16 -29 -9 -28 23 -71 27 -100 10 -43 -26 -94 -89 -94 -115 0 -16 -7
-26 -22 -30 -35 -9 -36 -8 -54 30 -19 39 -66 74 -101 74 -13 0 -35 -16 -56
-42 -22 -27 -40 -39 -50 -35 -26 10 -77 270 -77 394 0 25 -5 43 -11 43 -8 0
-10 -62 -8 -218 l4 -218 -27 -33 c-16 -18 -28 -40 -28 -50 0 -19 -50 -41 -92
-41 -16 0 -35 -11 -50 -28 -13 -15 -31 -31 -39 -34 -9 -4 -21 -26 -27 -51 -11
-43 -14 -45 -53 -49 -22 -2 -42 -1 -44 2 -1 3 4 37 12 75 8 39 25 129 38 200
44 239 102 398 171 475 19 21 63 57 98 79 126 83 582 270 659 271 36 0 37 -1
31 -27z m739 -80 c-2 -60 -6 -113 -8 -120 -2 -6 -50 -35 -107 -63 -120 -60
-125 -60 -273 -4 -118 45 -131 59 -117 116 6 24 14 69 17 101 4 31 10 57 14
57 4 0 45 -11 91 -25 46 -14 97 -25 114 -25 17 0 83 15 146 34 63 19 118 35
121 35 4 1 5 -47 2 -106z m-2596 -5 c-3 -8 -6 -5 -6 6 -1 11 2 17 5 13 3 -3 4
-12 1 -19z m3784 5 c13 -16 12 -17 -3 -4 -10 7 -18 15 -18 17 0 8 8 3 21 -13z
m-2605 -12 c-3 -5 -32 -19 -63 -31 -88 -35 -203 -94 -366 -187 -82 -47 -151
-83 -153 -80 -11 11 340 211 467 266 93 40 125 49 115 32z m2635 -28 c13 -16
12 -17 -3 -4 -10 7 -18 15 -18 17 0 8 8 3 21 -13z m-3604 -45 c-3 -8 -6 -5 -6
6 -1 11 2 17 5 13 3 -3 4 -12 1 -19z m1773 -63 c63 -23 162 -54 220 -70 91
-24 117 -27 192 -21 80 5 96 10 208 66 151 74 161 75 148 18 -14 -65 -43 -155
-75 -234 l-28 -70 -38 27 c-44 32 -121 48 -149 30 -10 -6 -28 -11 -42 -11 -25
0 -51 -22 -39 -33 3 -4 -8 -7 -26 -7 -18 0 -46 -8 -62 -17 -30 -18 -55 -65
-44 -82 7 -12 -24 -15 -41 -3 -5 4 -18 28 -28 55 -20 53 -39 67 -90 67 -43 0
-93 -40 -98 -78 -2 -22 -9 -28 -36 -30 -27 -3 -34 1 -42 22 -5 14 -16 26 -23
26 -22 0 -49 140 -55 279 -4 118 -4 124 14 116 11 -4 71 -26 134 -50z m2478
-5 c-7 -10 -14 -17 -17 -15 -4 4 18 35 25 35 2 0 -1 -9 -8 -20z m-85 -7 c-5
-12 -2 -15 10 -10 11 4 21 -1 28 -15 8 -15 8 -19 -1 -13 -8 5 -11 1 -8 -11 4
-18 -17 -74 -28 -74 -3 0 -2 6 2 13 5 8 2 8 -9 -2 -18 -15 -23 -26 -7 -16 6 3
10 3 10 0 0 -9 -72 -117 -75 -113 -2 2 -6 31 -10 66 -6 58 -5 64 21 95 15 17
31 33 35 33 5 1 14 2 19 3 6 0 10 6 10 12 0 8 -5 8 -15 -1 -10 -9 -15 -9 -15
-1 0 6 5 11 10 11 6 0 10 9 10 20 0 11 4 20 10 20 5 0 6 -8 3 -17z m-269 -161
c33 -20 77 -59 100 -85 l40 -48 -21 -21 -22 -21 -15 37 c-22 54 -84 125 -128
147 -21 11 -38 22 -38 24 0 13 30 1 84 -33z m-3574 -32 c8 -5 11 -10 5 -10 -5
0 -17 5 -25 10 -8 5 -10 10 -5 10 6 0 17 -5 25 -10z m1975 -91 c4 -6 19 -7 36
-4 42 9 83 -18 75 -50 -4 -15 3 -40 19 -70 19 -36 22 -52 14 -66 -21 -40 -91
-15 -130 47 -26 42 -40 44 -33 4 6 -26 0 -36 -35 -71 -36 -36 -45 -41 -73 -35
-49 10 -82 34 -68 51 9 11 7 16 -9 25 -16 8 -21 20 -21 53 0 24 5 48 12 55 17
17 74 15 102 -3 13 -9 38 -20 55 -25 30 -8 30 -8 20 13 -6 12 -20 32 -31 44
-19 20 -19 21 -1 32 23 14 60 14 68 0z m-365 -39 c11 -11 20 -28 20 -38 0 -10
11 -29 26 -42 18 -18 23 -31 19 -47 -5 -20 -2 -23 25 -23 41 0 38 -18 -5 -26
-20 -3 -44 -17 -54 -30 -25 -32 -36 -30 -72 11 -17 19 -42 38 -55 41 -28 7
-68 59 -59 74 4 6 14 9 23 8 12 -2 18 7 23 36 3 21 12 42 20 47 24 15 68 10
89 -11z m-197 -110 c14 -11 29 -20 35 -20 5 0 17 -8 26 -19 16 -18 16 -21 -4
-56 -20 -36 -20 -38 -3 -51 44 -32 64 -38 83 -26 29 18 87 15 94 -4 9 -24 -32
-77 -55 -71 -11 3 -22 0 -26 -6 -8 -13 -10 -67 -2 -67 3 0 21 16 39 35 27 28
41 35 65 33 27 -3 30 0 33 30 2 24 -1 32 -12 32 -12 0 -16 10 -16 38 0 43 19
66 61 77 23 6 28 3 38 -27 11 -30 13 -32 25 -15 11 14 19 16 40 7 22 -8 26
-14 21 -31 -7 -21 -7 -21 23 -4 28 17 32 17 56 2 14 -9 27 -13 30 -8 3 5 -5
16 -19 25 -31 20 -31 35 -4 70 l21 27 23 -21 c12 -12 35 -25 51 -29 22 -6 28
-13 26 -29 -2 -12 2 -22 7 -22 6 0 11 9 11 19 0 11 15 29 36 42 l36 22 26 -20
c40 -30 39 -56 -2 -89 -32 -26 -33 -29 -20 -48 20 -29 17 -51 -8 -68 -27 -17
-98 -16 -145 3 -28 11 -34 11 -53 -6 l-21 -19 32 -13 c30 -12 31 -16 26 -54
-3 -22 -7 -42 -9 -45 -2 -2 -42 -5 -88 -6 -73 -3 -85 -1 -88 14 -5 25 29 67
56 68 25 0 27 8 11 44 -11 24 -13 24 -41 10 -20 -10 -28 -20 -24 -31 6 -15
-25 -68 -54 -90 -39 -31 -120 -1 -140 53 -15 38 -29 28 -27 -18 l2 -43 -55 0
c-46 0 -55 3 -58 19 -2 11 3 25 12 31 13 10 7 12 -32 13 -55 0 -79 -11 -84
-39 -3 -19 -11 -20 -115 -23 -124 -4 -123 -5 -123 63 0 53 37 93 78 85 17 -4
32 -1 36 5 8 13 46 15 46 3 0 -10 73 -52 91 -52 7 0 -1 15 -19 33 -42 43 -42
74 -1 91 27 12 29 14 11 18 -23 6 -62 75 -62 109 0 27 37 69 60 69 10 0 29 -9
43 -20z m-134 -44 c6 -4 11 -19 11 -33 0 -14 5 -43 12 -65 15 -49 3 -63 -72
-82 -49 -13 -55 -13 -67 2 -7 10 -13 15 -13 12 -1 -3 -3 -14 -5 -25 -8 -41
-36 -95 -48 -95 -20 0 -43 21 -66 60 -39 65 -17 107 48 94 34 -7 38 1 16 30
-16 22 -6 58 28 94 19 21 29 23 83 19 34 -3 67 -8 73 -11z m-355 -42 c9 -3 16
-13 16 -21 0 -8 7 -27 15 -44 15 -28 15 -31 -5 -56 -26 -34 -25 -43 5 -43 18
0 34 -12 55 -41 16 -23 28 -45 25 -48 -2 -4 5 -7 17 -7 24 1 44 -25 35 -48 -7
-18 -57 -22 -74 -5 -8 8 -17 8 -32 -1 -12 -6 -41 -10 -64 -8 l-42 3 -3 96 c-3
92 -4 97 -32 124 -37 35 -37 42 -3 77 26 27 55 34 87 22z m626 -19 c20 -24 8
-50 -24 -50 -36 0 -56 26 -37 49 17 20 45 21 61 1z m1052 -32 c21 -20 38 -45
38 -54 0 -10 5 -21 10 -24 16 -10 11 -41 -9 -59 -11 -10 -21 -27 -23 -39 -2
-16 -15 -24 -53 -34 -93 -24 -103 -20 -131 43 -14 31 -24 58 -22 59 2 1 13 8
26 14 14 7 22 21 22 37 0 23 3 25 30 19 29 -6 30 -5 30 28 0 60 27 64 82 10z
m355 19 c21 -22 33 -58 33 -103 0 -32 -4 -41 -22 -48 -30 -11 -68 7 -68 31 0
14 -8 18 -40 18 -27 0 -47 7 -61 21 -20 20 -20 21 -2 42 39 47 57 57 102 55
24 -1 50 -8 58 -16z m-2217 4 c0 -11 -19 -15 -25 -6 -3 5 1 10 9 10 9 0 16 -2
16 -4z m37 -80 c15 -12 38 -28 51 -35 30 -16 28 -32 -5 -29 -25 3 -29 -1 -37
-37 -14 -62 -30 -96 -43 -91 -6 3 -17 -2 -23 -10 -7 -8 -29 -14 -48 -14 -34 0
-35 1 -16 15 10 8 31 15 46 15 15 0 30 5 33 10 4 6 -5 10 -20 10 -14 0 -28 7
-31 15 -5 12 -10 10 -25 -9 -40 -51 -133 -62 -155 -17 -15 29 -2 79 26 103 22
18 62 12 106 -17 l23 -15 -14 35 c-14 32 -13 35 11 64 33 39 80 42 121 7z
m2324 -2 c38 -19 88 -74 89 -96 0 -9 -6 -21 -14 -25 -7 -4 -18 -18 -25 -30 -8
-17 -21 -23 -45 -23 -71 0 -126 120 -79 172 20 22 35 23 74 2z m-288 -31 c52
-8 64 -38 37 -92 -33 -61 -58 -79 -126 -86 -66 -8 -82 1 -65 32 6 13 5 24 -5
38 -18 24 -18 35 0 35 8 0 31 20 52 45 26 32 42 44 53 39 9 -3 33 -8 54 -11z
m-439 -33 c20 -21 47 -106 40 -125 -6 -16 -12 -17 -104 -20 -77 -3 -83 1 -65
35 19 38 19 49 -2 57 -30 12 -58 42 -47 52 24 23 156 24 178 1z m641 -70 c21
-33 23 -44 15 -61 -10 -18 -19 -20 -83 -17 -69 3 -72 4 -69 27 3 27 68 90 94
91 10 0 29 -18 43 -40z m-831 14 c20 -20 20 -48 1 -68 -12 -11 -31 -14 -78
-11 -66 4 -75 11 -57 45 8 15 17 19 31 15 15 -5 25 -1 35 14 18 25 46 27 68 5z
m-1342 -44 c3 -38 2 -40 -24 -40 -24 0 -28 4 -28 28 0 60 46 71 52 12z m2383
-8 c5 -31 4 -32 -27 -32 -18 0 -50 -3 -70 -6 -31 -5 -38 -4 -38 10 0 12 10 16
38 16 28 0 45 7 62 25 13 14 25 24 26 22 2 -1 5 -17 9 -35z m-611 -8 c12 -31
5 -34 -75 -34 -71 0 -80 2 -77 18 2 12 16 19 48 23 81 11 98 10 104 -7z
m-1184 -24 c0 -3 -11 -7 -25 -8 -29 -2 -33 13 -8 27 16 9 32 -1 33 -19z
m-1176 13 c4 -5 -34 -15 -86 -23 -92 -15 -93 -16 -111 -51 -16 -34 -16 -43 -2
-135 40 -264 64 -443 63 -485 -1 -45 -2 -47 -40 -58 l-38 -12 25 -22 c14 -12
28 -37 32 -56 5 -30 4 -33 -11 -28 -10 4 -29 -2 -46 -14 l-29 -22 -42 21 -42
21 -19 -25 c-26 -33 -45 -30 -83 11 l-33 34 -16 -24 c-21 -32 -21 -32 15 -51
l31 -16 -23 -24 c-26 -28 -26 -29 25 -43 45 -12 55 -8 36 13 -21 26 -7 39 20
18 20 -16 22 -22 12 -35 -9 -10 -10 -22 -4 -38 20 -54 31 -93 27 -97 -2 -2
-19 -7 -36 -11 -37 -7 -52 -31 -20 -31 30 0 26 -18 -9 -38 -16 -9 -30 -23 -30
-30 0 -7 -10 -16 -22 -21 -27 -10 -58 -44 -78 -84 -18 -36 -49 -43 -107 -23
-58 20 -56 20 -48 -4 9 -27 -7 -52 -52 -83 -48 -33 -87 -34 -118 -3 -23 23
-23 28 -20 137 4 107 11 128 38 129 4 0 16 -9 27 -20 19 -19 20 -19 30 0 22
42 83 19 114 -42 12 -23 74 -60 88 -52 4 3 8 16 8 30 0 21 -4 24 -20 19 -22
-7 -60 10 -60 27 0 6 -12 22 -26 35 -21 20 -25 30 -20 55 8 42 23 58 55 58 29
0 91 -34 91 -50 0 -6 4 -9 9 -5 6 3 2 23 -9 48 -28 61 -25 77 21 117 l41 35
-49 32 c-55 36 -83 49 -83 39 0 -4 11 -24 25 -44 14 -20 25 -42 25 -49 0 -28
-43 -83 -69 -89 -80 -16 -86 -19 -89 -47 -2 -18 -12 -31 -26 -36 -12 -5 -28
-16 -35 -25 -21 -24 -60 -20 -72 8 -10 20 -7 29 14 58 38 49 45 103 18 138
-27 37 -26 41 4 70 14 13 25 30 25 38 0 11 8 13 36 9 54 -9 114 24 138 76 11
22 15 42 10 44 -10 3 -10 155 0 172 8 12 55 15 72 3 6 -4 15 -22 19 -39 9 -43
25 -42 25 0 0 43 15 57 62 57 41 0 58 -19 58 -63 0 -28 -22 -50 -70 -71 l-35
-14 27 -11 c41 -15 41 -25 -2 -73 -37 -42 -62 -98 -44 -98 15 1 40 24 53 48 7
13 28 30 46 38 42 17 49 28 34 55 -9 18 -8 24 6 32 13 7 14 11 5 17 -11 7 -11
16 1 47 12 30 20 38 39 38 22 0 25 -5 28 -37 3 -39 24 -52 36 -23 9 23 73 20
88 -5 19 -30 27 -24 17 13 -44 165 -89 415 -89 498 0 63 27 114 70 136 27 14
162 18 174 6z m196 -13 c0 -5 -4 -10 -10 -10 -5 0 -10 5 -10 10 0 6 5 10 10
10 6 0 10 -4 10 -10z m-520 -521 c0 -18 -35 -5 -38 14 -3 16 -1 17 17 7 12 -6
21 -15 21 -21z m3975 -49 c3 -5 1 -10 -4 -10 -6 0 -11 5 -11 10 0 6 2 10 4 10
3 0 8 -4 11 -10z m-4321 -16 c43 -43 25 -111 -34 -130 -39 -13 -50 -33 -26
-46 23 -13 10 -28 -22 -28 l-28 0 2 90 c1 71 5 95 19 110 22 24 68 26 89 4z
m4427 -34 c28 -16 23 -37 -12 -49 -24 -8 -30 -15 -24 -28 12 -29 18 -63 11
-63 -13 0 -67 65 -72 87 -9 34 12 63 47 63 17 0 39 -5 50 -10z m-4843 -118
c-2 -10 -14 -18 -32 -20 -44 -5 -51 11 -20 47 26 31 27 32 41 11 8 -11 13 -28
11 -38z m5659 -26 c15 -32 15 -36 -1 -52 -19 -18 -12 -30 19 -36 12 -2 24 -16
31 -38 8 -25 19 -36 39 -42 53 -14 61 -53 13 -62 -112 -20 -107 -20 -117 7
-13 32 -48 57 -83 57 -37 0 -36 13 2 27 41 15 38 34 -5 31 -19 -1 -36 0 -38 2
-3 3 -7 26 -9 52 -7 64 17 86 95 87 33 1 39 -3 54 -33z m-5217 17 c0 -10 -32
-43 -42 -43 -12 0 -10 24 4 38 13 13 38 16 38 5z m-191 -87 c-13 -14 -26 -26
-31 -26 -9 0 16 54 36 79 9 12 12 11 14 -7 2 -11 -7 -32 -19 -46z m731 2 c0
-21 -4 -38 -9 -38 -13 0 -24 55 -16 81 10 31 25 5 25 -43z m4268 33 c-4 -20
-36 -27 -52 -11 -8 8 -6 15 7 25 23 17 49 9 45 -14z m-685 -43 c24 -20 37 -38
37 -54 0 -22 -4 -24 -53 -24 -79 0 -106 29 -81 89 11 27 17 31 36 25 13 -3 40
-20 61 -36z m578 32 c10 -6 19 -17 19 -26 0 -19 39 -33 72 -27 20 4 26 0 31
-18 11 -42 -7 -56 -85 -62 -40 -4 -84 -9 -98 -12 -14 -3 -32 -1 -40 4 -12 9
-11 16 8 56 12 25 22 54 22 64 0 10 3 21 7 24 10 10 42 8 64 -3z m310 -12 c46
-26 59 -66 35 -103 -18 -28 -69 -34 -97 -12 -28 21 -32 68 -9 105 11 17 23 32
26 32 3 0 24 -10 45 -22z m-4493 -76 c20 -27 20 -28 1 -51 -10 -13 -19 -38
-19 -57 0 -45 -29 -64 -97 -64 -62 0 -88 20 -98 74 -15 76 23 114 81 83 27
-14 30 -13 55 14 34 36 52 37 77 1z m4372 8 c0 -5 -7 -10 -15 -10 -8 0 -15 5
-15 10 0 6 7 10 15 10 8 0 15 -4 15 -10z m-812 -56 c51 -8 53 -21 11 -69 -38
-43 -57 -44 -93 -6 -26 27 -27 31 -15 69 11 38 13 40 33 27 11 -8 40 -17 64
-21z m810 -36 c-28 -50 -48 -60 -48 -24 0 29 31 66 56 66 13 0 12 -7 -8 -42z
m259 21 c21 -18 15 -37 -15 -53 -44 -23 -65 -52 -54 -73 13 -22 -2 -53 -25
-53 -22 0 -53 29 -53 51 0 9 -4 19 -9 21 -12 4 -23 61 -13 74 4 6 27 21 52 32
46 22 91 22 117 1z m-4577 -91 c0 -35 -13 -36 -28 -3 -14 29 -16 68 -5 79 10
10 32 -42 33 -76z m4757 10 c8 -7 9 -17 1 -40 l-11 -30 -13 32 c-24 57 -17 69
23 38z m-43 -51 c23 -37 28 -67 16 -96 -12 -31 -68 -77 -78 -66 -4 4 -1 10 6
12 10 4 10 8 1 19 -18 22 -39 17 -39 -11 0 -14 -6 -25 -12 -26 -10 0 -10 -2 0
-6 28 -11 4 -84 -35 -102 -13 -6 -44 -11 -69 -11 -35 0 -50 5 -68 25 -13 14
-28 25 -35 25 -16 0 -14 13 14 68 14 28 25 58 25 67 0 14 6 16 32 11 43 -8 68
15 68 64 0 47 13 58 75 62 58 4 80 -4 99 -35z m-4756 -12 c13 -15 28 -22 37
-19 29 12 16 -37 -25 -88 -50 -63 -51 -75 -4 -43 20 14 41 25 45 25 12 0 23
-46 23 -100 1 -36 -3 -45 -19 -48 -17 -4 -18 -2 -6 12 18 22 8 30 -19 16 -14
-8 -20 -18 -17 -30 4 -14 -3 -22 -26 -29 -46 -17 -69 -13 -103 17 -43 38 -67
78 -66 112 1 27 -2 29 -29 23 -56 -11 -52 52 8 118 30 34 41 40 62 34 42 -10
75 -6 86 10 14 21 28 19 53 -10z m4008 -130 c20 -31 17 -34 -30 -42 -29 -5
-36 -3 -36 11 0 26 19 56 35 56 8 0 22 -11 31 -25z m-4301 -45 c12 -14 31 -20
58 -20 l39 0 -7 -47 c-9 -63 -28 -83 -77 -83 -22 0 -37 -4 -34 -9 3 -4 -1 -17
-9 -27 -8 -10 -15 -29 -15 -41 0 -12 -5 -23 -11 -25 -9 -3 -8 -10 1 -28 13
-24 13 -23 25 22 6 26 17 54 25 62 18 23 63 20 87 -6 50 -55 55 -100 17 -141
-22 -24 -33 -28 -67 -25 -35 2 -43 7 -45 26 -5 30 -17 28 -32 -7 -26 -64 -115
-65 -136 -2 -6 19 -20 38 -32 42 -33 12 -37 46 -11 101 23 49 24 50 59 43 95
-19 90 -19 90 7 0 13 5 29 11 35 8 8 8 17 0 31 -17 33 -13 69 11 92 27 25 31
25 53 0z m3785 -35 c12 -14 9 -20 -16 -45 -29 -28 -61 -42 -65 -27 -1 4 2 34
5 67 l7 61 28 -20 c15 -11 34 -27 41 -36z m80 -77 c0 -17 5 -46 12 -64 11 -31
10 -35 -15 -58 -32 -30 -37 -60 -8 -51 16 5 18 1 15 -26 -7 -54 -18 -60 -105
-56 -87 4 -109 16 -109 59 0 32 22 47 44 29 16 -14 26 -4 26 25 0 13 -9 28
-21 34 -14 8 -19 19 -17 38 3 23 8 27 41 30 29 3 40 9 52 32 10 18 25 30 42
33 16 2 31 5 36 6 4 0 7 -13 7 -31z m-3720 -18 c45 -23 48 -32 20 -60 -38 -38
-70 -15 -70 49 0 37 0 37 50 11z m241 -22 c17 -32 5 -126 -20 -152 -13 -14
-21 -36 -21 -58 0 -43 -12 -54 -66 -63 -37 -6 -46 -3 -78 25 -23 20 -38 44
-42 67 -6 31 -2 39 32 74 30 31 45 39 66 37 25 -4 26 -2 21 29 -5 30 -3 34 28
48 47 20 66 18 80 -7z m-226 -78 c3 -5 2 -17 -3 -26 -8 -14 -10 -14 -21 0 -13
15 -8 36 9 36 5 0 12 -4 15 -10z m758 -110 c7 -26 35 -37 56 -22 78 57 153 20
101 -50 -16 -22 -19 -33 -11 -41 22 -22 12 -63 -24 -96 -19 -17 -35 -36 -35
-41 0 -13 -56 -13 -81 0 -11 6 -19 21 -19 35 0 15 -7 26 -20 30 -31 10 -43 41
-31 77 6 17 11 33 11 34 0 9 -37 3 -47 -7 -16 -16 -33 -2 -33 27 0 37 45 74
90 74 29 0 39 -5 43 -20z m-498 -11 c0 -7 -8 -15 -17 -17 -18 -3 -25 18 -11
32 10 10 28 1 28 -15z m3158 -82 c12 -24 17 -47 12 -64 l-6 -26 -23 22 c-12
11 -28 21 -34 21 -17 0 -15 -25 3 -40 50 -42 -42 -116 -120 -96 -36 9 -49 49
-30 87 19 35 10 36 -30 4 l-29 -24 17 -36 c13 -27 15 -41 7 -56 -12 -21 -40
-25 -58 -7 -17 17 -15 35 10 69 21 28 21 33 9 90 -15 75 -7 89 43 71 24 -9 41
-9 60 -2 41 15 71 12 91 -10 25 -28 35 -25 35 11 0 40 19 34 43 -14z m-545 17
c-10 -10 -21 -13 -29 -8 -12 7 0 14 41 23 2 1 -3 -6 -12 -15z m252 1 c-7 -9
-15 -13 -17 -11 -7 7 7 26 19 26 6 0 6 -6 -2 -15z m-1171 -79 c7 -8 13 -37 13
-65 1 -41 -3 -56 -22 -77 -29 -30 -86 -31 -104 -1 -12 19 -3 30 54 68 22 15
23 19 12 43 -7 15 -10 32 -7 37 9 14 41 11 54 -5z"/>
<path d="M3230 7451 c0 -5 5 -13 10 -16 6 -3 10 -2 10 4 0 5 -4 13 -10 16 -5
3 -10 2 -10 -4z"/>
<path d="M4557 7421 c-4 -17 -3 -21 5 -13 5 5 8 16 6 23 -3 8 -7 3 -11 -10z"/>
<path d="M3186 7366 c3 -9 11 -16 16 -16 13 0 5 23 -10 28 -7 2 -10 -2 -6 -12z"/>
<path d="M2896 7263 c-6 -14 -5 -15 5 -6 7 7 10 15 7 18 -3 3 -9 -2 -12 -12z"/>
<path d="M6828 7253 c6 -2 18 -2 25 0 6 3 1 5 -13 5 -14 0 -19 -2 -12 -5z"/>
<path d="M2965 7239 c-4 -6 -5 -12 -2 -15 2 -3 7 2 10 11 7 17 1 20 -8 4z"/>
<path d="M6775 7240 c-3 -5 -1 -10 4 -10 6 0 11 5 11 10 0 6 -2 10 -4 10 -3 0
-8 -4 -11 -10z"/>
<path d="M2864 7194 c-8 -20 -13 -39 -10 -41 3 -3 1 -14 -5 -24 -5 -11 -6 -19
-2 -19 4 0 13 11 20 25 8 18 8 25 0 25 -8 0 -7 4 1 12 9 9 15 8 28 -8 8 -10
13 -13 9 -6 -3 6 -2 12 3 12 13 0 35 -47 28 -59 -4 -7 -1 -9 8 -5 10 4 13 15
9 40 -4 21 -2 34 5 34 6 0 9 7 5 16 -5 14 -8 15 -17 3 -6 -8 -22 -14 -36 -14
-20 0 -25 5 -23 23 4 33 -6 27 -23 -14z"/>
<path d="M3677 7171 c-42 -63 -118 -204 -113 -208 6 -6 49 63 104 165 47 88
51 106 9 43z"/>
<path d="M6760 7159 c0 -5 5 -7 10 -4 6 3 10 8 10 11 0 2 -4 4 -10 4 -5 0 -10
-5 -10 -11z"/>
<path d="M6867 7137 c-5 -12 -14 -16 -32 -13 -14 3 -23 1 -20 -4 5 -9 52 -7
61 3 4 3 4 11 2 18 -3 9 -6 7 -11 -4z"/>
<path d="M6780 7119 c0 -5 5 -7 10 -4 6 3 10 8 10 11 0 2 -4 4 -10 4 -5 0 -10
-5 -10 -11z"/>
<path d="M4850 6890 c0 -5 5 -10 11 -10 5 0 7 5 4 10 -3 6 -8 10 -11 10 -2 0
-4 -4 -4 -10z"/>
<path d="M3295 6810 c3 -5 8 -10 11 -10 2 0 4 5 4 10 0 6 -5 10 -11 10 -5 0
-7 -4 -4 -10z"/>
<path d="M6100 6770 c0 -5 5 -10 10 -10 6 0 10 5 10 10 0 6 -4 10 -10 10 -5 0
-10 -4 -10 -10z"/>
<path d="M3082 6740 c0 -14 2 -19 5 -12 2 6 2 18 0 25 -3 6 -5 1 -5 -13z"/>
<path d="M5300 6710 c0 -5 4 -10 9 -10 6 0 13 5 16 10 3 6 -1 10 -9 10 -9 0
-16 -4 -16 -10z"/>
<path d="M5875 6710 c-3 -5 1 -10 10 -10 9 0 13 5 10 10 -3 6 -8 10 -10 10 -2
0 -7 -4 -10 -10z"/>
<path d="M5420 6699 c0 -5 5 -7 10 -4 6 3 10 8 10 11 0 2 -4 4 -10 4 -5 0 -10
-5 -10 -11z"/>
<path d="M6020 6690 c0 -5 5 -10 10 -10 6 0 10 5 10 10 0 6 -4 10 -10 10 -5 0
-10 -4 -10 -10z"/>
<path d="M3080 6680 c0 -5 4 -10 9 -10 6 0 13 5 16 10 3 6 -1 10 -9 10 -9 0
-16 -4 -16 -10z"/>
<path d="M5347 6683 c-4 -3 -7 -13 -7 -22 1 -13 3 -13 11 2 11 19 8 33 -4 20z"/>
<path d="M4741 6666 c-7 -8 -8 -16 -3 -18 6 -1 12 -23 16 -47 6 -42 16 -69 16
-42 0 7 4 10 10 6 5 -3 7 -12 3 -20 -3 -8 0 -15 5 -15 6 0 9 9 7 20 -2 11 0
20 6 20 14 0 11 24 -9 66 -19 43 -34 51 -51 30z m49 -63 c0 -39 -17 -25 -18
15 -1 27 1 33 8 22 5 -8 10 -25 10 -37z"/>
<path d="M3380 6644 c0 -8 5 -12 10 -9 6 3 10 10 10 16 0 5 -4 9 -10 9 -5 0
-10 -7 -10 -16z"/>
<path d="M5960 6635 c-19 -11 -21 -14 -7 -15 9 0 17 -4 17 -10 0 -5 4 -10 9
-10 5 0 8 11 7 25 0 14 -1 25 -1 25 0 -1 -11 -7 -25 -15z"/>
<path d="M5997 6633 c-3 -5 5 -16 17 -25 18 -13 23 -14 23 -2 0 8 -4 14 -9 14
-5 0 -6 5 -3 10 3 6 -1 10 -9 10 -8 0 -17 -3 -19 -7z"/>
<path d="M5137 6566 c-4 -10 -1 -13 9 -9 15 6 19 23 5 23 -5 0 -11 -7 -14 -14z"/>
<path d="M6776 6507 c3 -10 9 -15 12 -12 3 3 0 11 -7 18 -10 9 -11 8 -5 -6z"/>
<path d="M6190 8184 c0 -9 60 -57 101 -81 29 -17 39 -19 39 -9 0 8 -15 21 -32
30 -18 9 -50 28 -70 41 -21 14 -38 23 -38 19z"/>
<path d="M7128 7420 c2 -16 8 -27 13 -24 5 3 9 0 9 -7 0 -7 3 -10 6 -7 5 6
-22 68 -30 68 -1 0 -1 -13 2 -30z"/>
<path d="M3850 5245 c0 -13 86 -128 122 -162 19 -18 61 -41 98 -53 131 -44
349 -8 433 72 22 21 38 41 34 44 -3 3 -30 -7 -59 -24 -75 -43 -167 -65 -273
-66 -119 -1 -178 25 -281 126 -41 39 -74 68 -74 63z"/>
<path d="M3865 5173 c22 -29 41 -51 43 -48 6 5 -31 56 -59 80 -12 11 -5 -3 16
-32z"/>
<path d="M4998 5137 c-5 -10 -8 -33 -8 -50 1 -27 2 -29 11 -14 6 9 9 32 7 50
-2 25 -5 28 -10 14z"/>
<path d="M4800 4800 c0 -13 60 -50 80 -50 10 0 3 11 -18 30 -32 30 -62 39 -62
20z"/>
<path d="M5302 4766 c-26 -25 -44 -48 -40 -52 9 -9 86 43 99 67 24 45 -2 38
-59 -15z"/>
<path d="M3165 6350 c-3 -5 -1 -10 4 -10 6 0 11 5 11 10 0 6 -2 10 -4 10 -3 0
-8 -4 -11 -10z"/>
<path d="M7141 4554 c0 -11 3 -14 6 -6 3 7 2 16 -1 19 -3 4 -6 -2 -5 -13z"/>
<path d="M7160 4531 c0 -6 4 -12 8 -15 5 -3 9 1 9 9 0 8 -4 15 -9 15 -4 0 -8
-4 -8 -9z"/>
<path d="M7150 4456 c0 -9 5 -16 10 -16 6 0 10 4 10 9 0 6 -4 13 -10 16 -5 3
-10 -1 -10 -9z"/>
<path d="M7270 4525 c7 -8 10 -22 6 -30 -3 -8 -1 -15 4 -15 17 0 11 47 -6 54
-14 5 -15 4 -4 -9z"/>
<path d="M7036 4495 c-4 -13 -2 -14 14 -5 23 13 26 20 6 20 -8 0 -16 -7 -20
-15z"/>
<path d="M7111 3934 c0 -11 3 -14 6 -6 3 7 2 16 -1 19 -3 4 -6 -2 -5 -13z"/>
<path d="M4680 3430 c-9 -6 -10 -10 -3 -10 6 0 15 5 18 10 8 12 4 12 -15 0z"/>
<path d="M2910 8570 c-11 -11 -20 -24 -20 -29 0 -5 -3 -16 -6 -25 -3 -9 -1
-16 5 -16 6 0 11 11 11 24 0 15 11 32 28 45 15 11 21 21 15 21 -7 0 -22 -9
-33 -20z"/>
<path d="M3075 8480 c-7 -21 -31 -37 -74 -51 -21 -6 -22 -7 -6 -8 30 -1 87 32
96 57 5 12 4 22 -1 22 -5 0 -12 -9 -15 -20z"/>
<path d="M2890 8478 c0 -9 5 -20 10 -23 13 -8 13 5 0 25 -8 13 -10 13 -10 -2z"/>
<path d="M7689 7905 c-14 -7 -37 -31 -52 -52 -23 -34 -25 -43 -17 -72 5 -19
17 -42 26 -52 23 -25 78 -24 114 1 54 39 80 142 43 171 -15 11 -16 11 -5 -1
16 -19 15 -55 -3 -90 -9 -17 -15 -32 -15 -35 0 -3 0 -9 0 -13 0 -11 -55 -42
-74 -42 -28 0 -66 46 -66 80 0 57 40 97 110 111 l35 7 -35 0 c-19 1 -47 -5
-61 -13z"/>
<path d="M7990 7085 c0 -7 30 -13 34 -7 3 4 -4 9 -15 9 -10 1 -19 0 -19 -2z"/>
<path d="M7701 3488 c-52 -14 -79 -37 -109 -87 -25 -42 -27 -54 -27 -152 1
-120 18 -179 64 -223 112 -107 320 50 338 256 5 48 2 63 -20 101 -29 50 -84
90 -142 106 -47 13 -58 13 -104 -1z m139 -56 c79 -39 99 -122 59 -240 -27 -81
-86 -136 -163 -152 -58 -12 -81 -7 -91 18 -4 9 -9 74 -12 144 -7 153 7 205 60
232 42 21 104 20 147 -2z"/>
<path d="M2234 3269 c-64 -8 -103 -30 -133 -76 -29 -45 -29 -90 -1 -148 63
-130 298 -231 383 -164 54 41 60 155 13 246 -27 55 -103 130 -138 137 -50 10
-75 11 -124 5z m119 -43 c44 -18 111 -95 125 -144 15 -48 16 -117 2 -141 -10
-20 -78 -51 -110 -51 -33 0 -186 105 -214 147 -55 81 -25 162 69 188 66 17 89
18 128 1z"/>
<path d="M2455 2349 c5 -12 -2 -20 -26 -28 -62 -22 -87 -63 -54 -91 13 -11 15
-8 15 13 0 31 22 40 85 36 24 -2 47 -1 49 2 3 3 -13 23 -35 45 -22 21 -37 32
-34 23z"/>
<path d="M7724 1803 c-35 -41 -44 -46 -81 -46 -40 0 -43 -1 -49 -34 -7 -39 1
-53 19 -31 6 8 31 20 54 27 41 11 73 42 102 98 21 41 -6 33 -45 -14z"/>
<path d="M7155 1750 c-12 -24 -14 -38 -6 -67 6 -20 8 -40 5 -45 -7 -12 -41
-10 -63 3 -10 7 -30 9 -45 5 l-27 -7 18 -29 c19 -33 46 -38 77 -15 11 8 26 15
33 15 20 0 15 -37 -8 -53 -19 -14 -19 -17 -5 -50 26 -64 90 -77 175 -37 63 31
82 64 70 123 -6 25 -21 53 -38 68 l-28 26 -62 -16 c-74 -19 -83 -12 -79 62 2
26 2 47 1 47 -1 0 -10 -14 -18 -30z m169 -112 c29 -41 14 -134 -18 -122 -8 3
-24 -4 -35 -15 -22 -22 -56 -27 -79 -12 -9 5 -12 27 -10 72 3 62 4 64 38 81
49 24 86 23 104 -4z"/>
<path d="M5632 1416 c-13 -36 -7 -69 12 -63 12 4 18 97 7 97 -4 0 -12 -15 -19
-34z"/>
<path d="M4760 1387 c0 -63 43 -75 92 -26 22 21 28 33 20 41 -7 7 -18 4 -38
-11 -36 -28 -54 -27 -54 4 0 14 -4 25 -10 25 -5 0 -10 -15 -10 -33z"/>
<path d="M4629 1383 c-28 -34 -93 -73 -121 -73 -18 0 -28 -5 -28 -15 0 -19 42
-20 78 -1 25 13 60 47 91 89 17 22 -2 23 -20 0z"/>
<path d="M3628 1323 c-22 -5 -24 -33 -3 -33 8 0 15 5 15 10 0 6 13 10 29 10
17 0 33 5 36 10 6 10 -43 12 -77 3z"/>
</g>
</svg>
